<svg xmlns="http://www.w3.org/2000/svg" xmlns:xlink="http://www.w3.org/1999/xlink" width="512" zoomAndPan="magnify" viewBox="0 0 384 383.999986" height="512" preserveAspectRatio="xMidYMid meet" version="1.0"><defs><clipPath id="450e90c018"><path d="M 0.21875 0.1875 L 100.886719 0.1875 L 100.886719 100.855469 L 0.21875 100.855469 Z M 0.21875 0.1875 " clip-rule="nonzero"/></clipPath><clipPath id="80d0cbe617"><path d="M 127.679688 0.1875 L 228.347656 0.1875 L 228.347656 100.855469 L 127.679688 100.855469 Z M 127.679688 0.1875 " clip-rule="nonzero"/></clipPath><clipPath id="1dc7f6e759"><path d="M 255.140625 0.1875 L 355.8125 0.1875 L 355.8125 100.855469 L 255.140625 100.855469 Z M 255.140625 0.1875 " clip-rule="nonzero"/></clipPath><clipPath id="12aa5c5952"><path d="M 0.21875 127.648438 L 100.886719 127.648438 L 100.886719 228.316406 L 0.21875 228.316406 Z M 0.21875 127.648438 " clip-rule="nonzero"/></clipPath><clipPath id="d8c081a3a7"><path d="M 127.679688 127.648438 L 228.347656 127.648438 L 228.347656 228.316406 L 127.679688 228.316406 Z M 127.679688 127.648438 " clip-rule="nonzero"/></clipPath><clipPath id="adc5809e12"><path d="M 255.140625 127.648438 L 355.8125 127.648438 L 355.8125 228.316406 L 255.140625 228.316406 Z M 255.140625 127.648438 " clip-rule="nonzero"/></clipPath><clipPath id="204b628713"><path d="M 0.21875 255.175781 L 100.886719 255.175781 L 100.886719 355.839844 L 0.21875 355.839844 Z M 0.21875 255.175781 " clip-rule="nonzero"/></clipPath><clipPath id="962919481c"><path d="M 127.679688 255.175781 L 228.347656 255.175781 L 228.347656 355.839844 L 127.679688 355.839844 Z M 127.679688 255.175781 " clip-rule="nonzero"/></clipPath><clipPath id="73ec9550c0"><path d="M 255.140625 255.175781 L 355.8125 255.175781 L 355.8125 355.839844 L 255.140625 355.839844 Z M 255.140625 255.175781 " clip-rule="nonzero"/></clipPath><clipPath id="a928a70ce7"><path d="M 38 38 L 163 38 L 163 170 L 38 170 Z M 38 38 " clip-rule="nonzero"/></clipPath><clipPath id="532c574a82"><path d="M 38.855469 40.375 L 40.46875 38.84375 L 162.859375 167.785156 L 161.246094 169.316406 Z M 38.855469 40.375 " clip-rule="nonzero"/></clipPath><clipPath id="2b43e5f8c9"><path d="M 38.855469 40.375 L 40.46875 38.84375 L 162.859375 167.785156 L 161.246094 169.316406 Z M 38.855469 40.375 " clip-rule="nonzero"/></clipPath><clipPath id="fa8f0ab9ee"><path d="M 175.777344 11.933594 L 178 11.933594 L 178 189.714844 L 175.777344 189.714844 Z M 175.777344 11.933594 " clip-rule="nonzero"/></clipPath><clipPath id="91a5abd901"><path d="M 194 36 L 316 36 L 316 170 L 194 170 Z M 194 36 " clip-rule="nonzero"/></clipPath><clipPath id="5da5b0b33d"><path d="M 314.324219 36.648438 L 315.964844 38.148438 L 195.960938 169.316406 L 194.320312 167.816406 Z M 314.324219 36.648438 " clip-rule="nonzero"/></clipPath><clipPath id="3a4ebc556d"><path d="M 314.324219 36.648438 L 315.964844 38.148438 L 195.960938 169.316406 L 194.320312 167.816406 Z M 314.324219 36.648438 " clip-rule="nonzero"/></clipPath><clipPath id="b4c3312070"><path d="M 178 169.316406 L 180.222656 169.316406 L 180.222656 347.097656 L 178 347.097656 Z M 178 169.316406 " clip-rule="nonzero"/></clipPath><clipPath id="24b9e5a8a3"><path d="M 54 177 L 176 177 L 176 311 L 54 311 Z M 54 177 " clip-rule="nonzero"/></clipPath><clipPath id="b9250a18b5"><path d="M 174.136719 177.964844 L 175.777344 179.464844 L 55.773438 310.632812 L 54.132812 309.132812 Z M 174.136719 177.964844 " clip-rule="nonzero"/></clipPath><clipPath id="4ccc10afe7"><path d="M 174.136719 177.964844 L 175.777344 179.464844 L 55.773438 310.632812 L 54.132812 309.132812 Z M 174.136719 177.964844 " clip-rule="nonzero"/></clipPath><clipPath id="4b5d90779a"><path d="M 179 177 L 304 177 L 304 309 L 179 309 Z M 179 177 " clip-rule="nonzero"/></clipPath><clipPath id="4759e879c7"><path d="M 179.109375 179.496094 L 180.722656 177.964844 L 303.113281 306.910156 L 301.503906 308.441406 Z M 179.109375 179.496094 " clip-rule="nonzero"/></clipPath><clipPath id="851bf7a4a1"><path d="M 179.109375 179.496094 L 180.722656 177.964844 L 303.113281 306.910156 L 301.503906 308.441406 Z M 179.109375 179.496094 " clip-rule="nonzero"/></clipPath><clipPath id="35c2eac77e"><path d="M 16.539062 172.53125 L 194.320312 172.53125 L 194.320312 174.753906 L 16.539062 174.753906 Z M 16.539062 172.53125 " clip-rule="nonzero"/></clipPath><clipPath id="284ee3e659"><path d="M 172.492188 173.640625 L 350.273438 173.640625 L 350.273438 175.863281 L 172.492188 175.863281 Z M 172.492188 173.640625 " clip-rule="nonzero"/></clipPath><clipPath id="2a7c3d1f8a"><rect x="0" width="356" y="0" height="356"/></clipPath></defs><g transform="matrix(1, 0, 0, 1, 14, 14)"><g clip-path="url(#2a7c3d1f8a)"><g clip-path="url(#450e90c018)"><path fill="#4f40cf" d="M 25.140625 0.1875 L 75.933594 0.1875 C 76.75 0.1875 77.566406 0.226562 78.375 0.304688 C 79.1875 0.386719 79.996094 0.503906 80.796875 0.664062 C 81.597656 0.824219 82.386719 1.023438 83.167969 1.257812 C 83.949219 1.496094 84.71875 1.769531 85.472656 2.082031 C 86.226562 2.394531 86.960938 2.742188 87.683594 3.128906 C 88.402344 3.511719 89.101562 3.933594 89.78125 4.386719 C 90.457031 4.839844 91.113281 5.324219 91.746094 5.84375 C 92.375 6.359375 92.980469 6.910156 93.558594 7.484375 C 94.132812 8.0625 94.679688 8.667969 95.199219 9.296875 C 95.71875 9.929688 96.203125 10.582031 96.65625 11.261719 C 97.109375 11.941406 97.527344 12.640625 97.914062 13.359375 C 98.296875 14.078125 98.648438 14.816406 98.960938 15.570312 C 99.273438 16.324219 99.546875 17.09375 99.78125 17.875 C 100.019531 18.65625 100.21875 19.445312 100.378906 20.246094 C 100.535156 21.046875 100.65625 21.851562 100.734375 22.664062 C 100.816406 23.476562 100.855469 24.292969 100.855469 25.109375 L 100.855469 75.902344 C 100.855469 76.71875 100.816406 77.53125 100.734375 78.34375 C 100.65625 79.15625 100.535156 79.960938 100.378906 80.761719 C 100.21875 81.5625 100.019531 82.355469 99.78125 83.136719 C 99.546875 83.917969 99.273438 84.683594 98.960938 85.4375 C 98.648438 86.191406 98.296875 86.929688 97.914062 87.648438 C 97.527344 88.367188 97.109375 89.066406 96.65625 89.746094 C 96.203125 90.425781 95.71875 91.082031 95.199219 91.710938 C 94.679688 92.34375 94.132812 92.945312 93.558594 93.523438 C 92.980469 94.101562 92.375 94.648438 91.746094 95.164062 C 91.113281 95.683594 90.457031 96.167969 89.78125 96.621094 C 89.101562 97.078125 88.402344 97.496094 87.683594 97.878906 C 86.960938 98.265625 86.226562 98.613281 85.472656 98.925781 C 84.71875 99.238281 83.949219 99.511719 83.167969 99.75 C 82.386719 99.988281 81.597656 100.183594 80.796875 100.34375 C 79.996094 100.503906 79.1875 100.621094 78.375 100.703125 C 77.566406 100.78125 76.75 100.824219 75.933594 100.824219 L 25.140625 100.824219 C 24.324219 100.824219 23.511719 100.78125 22.699219 100.703125 C 21.886719 100.621094 21.078125 100.503906 20.277344 100.34375 C 19.480469 100.183594 18.6875 99.988281 17.90625 99.75 C 17.125 99.511719 16.359375 99.238281 15.605469 98.925781 C 14.851562 98.613281 14.113281 98.265625 13.394531 97.878906 C 12.671875 97.496094 11.972656 97.078125 11.296875 96.621094 C 10.617188 96.167969 9.960938 95.683594 9.332031 95.164062 C 8.699219 94.648438 8.097656 94.101562 7.519531 93.523438 C 6.941406 92.945312 6.394531 92.34375 5.875 91.710938 C 5.359375 91.082031 4.871094 90.425781 4.417969 89.746094 C 3.964844 89.066406 3.546875 88.367188 3.160156 87.648438 C 2.777344 86.929688 2.429688 86.191406 2.117188 85.4375 C 1.804688 84.683594 1.527344 83.917969 1.292969 83.136719 C 1.054688 82.355469 0.855469 81.5625 0.699219 80.761719 C 0.539062 79.960938 0.417969 79.15625 0.339844 78.34375 C 0.257812 77.53125 0.21875 76.71875 0.21875 75.902344 L 0.21875 25.109375 C 0.21875 24.292969 0.257812 23.476562 0.339844 22.664062 C 0.417969 21.851562 0.539062 21.046875 0.699219 20.246094 C 0.855469 19.445312 1.054688 18.65625 1.292969 17.875 C 1.527344 17.09375 1.804688 16.324219 2.117188 15.570312 C 2.429688 14.816406 2.777344 14.078125 3.160156 13.359375 C 3.546875 12.640625 3.964844 11.941406 4.417969 11.261719 C 4.871094 10.582031 5.359375 9.929688 5.875 9.296875 C 6.394531 8.667969 6.941406 8.0625 7.519531 7.484375 C 8.097656 6.910156 8.699219 6.359375 9.332031 5.84375 C 9.960938 5.324219 10.617188 4.839844 11.296875 4.386719 C 11.972656 3.933594 12.671875 3.511719 13.394531 3.128906 C 14.113281 2.742188 14.851562 2.394531 15.605469 2.082031 C 16.359375 1.769531 17.125 1.496094 17.90625 1.257812 C 18.6875 1.023438 19.480469 0.824219 20.277344 0.664062 C 21.078125 0.503906 21.886719 0.386719 22.699219 0.304688 C 23.511719 0.226562 24.324219 0.1875 25.140625 0.1875 Z M 25.140625 0.1875 " fill-opacity="1" fill-rule="nonzero"/></g><g clip-path="url(#80d0cbe617)"><path fill="#4f40cf" d="M 152.601562 0.1875 L 203.394531 0.1875 C 204.210938 0.1875 205.027344 0.226562 205.839844 0.304688 C 206.652344 0.386719 207.457031 0.503906 208.257812 0.664062 C 209.058594 0.824219 209.847656 1.023438 210.628906 1.257812 C 211.410156 1.496094 212.179688 1.769531 212.933594 2.082031 C 213.6875 2.394531 214.425781 2.742188 215.144531 3.128906 C 215.863281 3.511719 216.5625 3.933594 217.242188 4.386719 C 217.921875 4.839844 218.574219 5.324219 219.207031 5.84375 C 219.835938 6.359375 220.441406 6.910156 221.019531 7.484375 C 221.59375 8.0625 222.144531 8.667969 222.660156 9.296875 C 223.179688 9.929688 223.664062 10.582031 224.117188 11.261719 C 224.570312 11.941406 224.992188 12.640625 225.375 13.359375 C 225.761719 14.078125 226.109375 14.816406 226.421875 15.570312 C 226.734375 16.324219 227.007812 17.09375 227.246094 17.875 C 227.480469 18.65625 227.679688 19.445312 227.839844 20.246094 C 228 21.046875 228.117188 21.851562 228.199219 22.664062 C 228.277344 23.476562 228.316406 24.292969 228.316406 25.109375 L 228.316406 75.902344 C 228.316406 76.71875 228.277344 77.53125 228.199219 78.34375 C 228.117188 79.15625 228 79.960938 227.839844 80.761719 C 227.679688 81.5625 227.480469 82.355469 227.246094 83.136719 C 227.007812 83.917969 226.734375 84.683594 226.421875 85.4375 C 226.109375 86.191406 225.761719 86.929688 225.375 87.648438 C 224.992188 88.367188 224.570312 89.066406 224.117188 89.746094 C 223.664062 90.425781 223.179688 91.082031 222.660156 91.710938 C 222.144531 92.34375 221.59375 92.945312 221.019531 93.523438 C 220.441406 94.101562 219.835938 94.648438 219.207031 95.164062 C 218.574219 95.683594 217.921875 96.167969 217.242188 96.621094 C 216.5625 97.078125 215.863281 97.496094 215.144531 97.878906 C 214.425781 98.265625 213.6875 98.613281 212.933594 98.925781 C 212.179688 99.238281 211.410156 99.511719 210.628906 99.75 C 209.847656 99.988281 209.058594 100.183594 208.257812 100.34375 C 207.457031 100.503906 206.652344 100.621094 205.839844 100.703125 C 205.027344 100.78125 204.210938 100.824219 203.394531 100.824219 L 152.601562 100.824219 C 151.785156 100.824219 150.972656 100.78125 150.160156 100.703125 C 149.347656 100.621094 148.542969 100.503906 147.742188 100.34375 C 146.941406 100.183594 146.148438 99.988281 145.367188 99.75 C 144.585938 99.511719 143.820312 99.238281 143.066406 98.925781 C 142.3125 98.613281 141.574219 98.265625 140.855469 97.878906 C 140.132812 97.496094 139.433594 97.078125 138.757812 96.621094 C 138.078125 96.167969 137.421875 95.683594 136.792969 95.164062 C 136.160156 94.648438 135.558594 94.101562 134.980469 93.523438 C 134.402344 92.945312 133.855469 92.34375 133.335938 91.710938 C 132.820312 91.082031 132.335938 90.425781 131.878906 89.746094 C 131.425781 89.066406 131.007812 88.367188 130.625 87.648438 C 130.238281 86.929688 129.890625 86.191406 129.578125 85.4375 C 129.265625 84.683594 128.992188 83.917969 128.753906 83.136719 C 128.515625 82.355469 128.320312 81.5625 128.160156 80.761719 C 128 79.960938 127.878906 79.15625 127.800781 78.34375 C 127.71875 77.53125 127.679688 76.71875 127.679688 75.902344 L 127.679688 25.109375 C 127.679688 24.292969 127.71875 23.476562 127.800781 22.664062 C 127.878906 21.851562 128 21.046875 128.160156 20.246094 C 128.320312 19.445312 128.515625 18.65625 128.753906 17.875 C 128.992188 17.09375 129.265625 16.324219 129.578125 15.570312 C 129.890625 14.816406 130.238281 14.078125 130.625 13.359375 C 131.007812 12.640625 131.425781 11.941406 131.878906 11.261719 C 132.335938 10.582031 132.820312 9.929688 133.335938 9.296875 C 133.855469 8.667969 134.402344 8.0625 134.980469 7.484375 C 135.558594 6.910156 136.160156 6.359375 136.792969 5.84375 C 137.421875 5.324219 138.078125 4.839844 138.757812 4.386719 C 139.433594 3.933594 140.132812 3.511719 140.855469 3.128906 C 141.574219 2.742188 142.3125 2.394531 143.066406 2.082031 C 143.820312 1.769531 144.585938 1.496094 145.367188 1.257812 C 146.148438 1.023438 146.941406 0.824219 147.742188 0.664062 C 148.542969 0.503906 149.347656 0.386719 150.160156 0.304688 C 150.972656 0.226562 151.785156 0.1875 152.601562 0.1875 Z M 152.601562 0.1875 " fill-opacity="1" fill-rule="nonzero"/></g><g clip-path="url(#1dc7f6e759)"><path fill="#4f40cf" d="M 280.0625 0.1875 L 330.855469 0.1875 C 331.671875 0.1875 332.488281 0.226562 333.300781 0.304688 C 334.113281 0.386719 334.917969 0.503906 335.71875 0.664062 C 336.519531 0.824219 337.3125 1.023438 338.089844 1.257812 C 338.871094 1.496094 339.640625 1.769531 340.394531 2.082031 C 341.148438 2.394531 341.886719 2.742188 342.605469 3.128906 C 343.324219 3.511719 344.023438 3.933594 344.703125 4.386719 C 345.382812 4.839844 346.035156 5.324219 346.667969 5.84375 C 347.296875 6.359375 347.902344 6.910156 348.480469 7.484375 C 349.058594 8.0625 349.605469 8.667969 350.121094 9.296875 C 350.640625 9.929688 351.125 10.582031 351.578125 11.261719 C 352.03125 11.941406 352.453125 12.640625 352.835938 13.359375 C 353.222656 14.078125 353.570312 14.816406 353.882812 15.570312 C 354.195312 16.324219 354.46875 17.09375 354.707031 17.875 C 354.941406 18.65625 355.140625 19.445312 355.300781 20.246094 C 355.460938 21.046875 355.578125 21.851562 355.660156 22.664062 C 355.738281 23.476562 355.78125 24.292969 355.78125 25.109375 L 355.78125 75.902344 C 355.78125 76.71875 355.738281 77.53125 355.660156 78.34375 C 355.578125 79.15625 355.460938 79.960938 355.300781 80.761719 C 355.140625 81.5625 354.941406 82.355469 354.707031 83.136719 C 354.46875 83.917969 354.195312 84.683594 353.882812 85.4375 C 353.570312 86.191406 353.222656 86.929688 352.835938 87.648438 C 352.453125 88.367188 352.03125 89.066406 351.578125 89.746094 C 351.125 90.425781 350.640625 91.082031 350.121094 91.710938 C 349.605469 92.34375 349.058594 92.945312 348.480469 93.523438 C 347.902344 94.101562 347.296875 94.648438 346.667969 95.164062 C 346.035156 95.683594 345.382812 96.167969 344.703125 96.621094 C 344.023438 97.078125 343.324219 97.496094 342.605469 97.878906 C 341.886719 98.265625 341.148438 98.613281 340.394531 98.925781 C 339.640625 99.238281 338.871094 99.511719 338.089844 99.75 C 337.3125 99.988281 336.519531 100.183594 335.71875 100.34375 C 334.917969 100.503906 334.113281 100.621094 333.300781 100.703125 C 332.488281 100.78125 331.671875 100.824219 330.855469 100.824219 L 280.0625 100.824219 C 279.25 100.824219 278.433594 100.78125 277.621094 100.703125 C 276.808594 100.621094 276.003906 100.503906 275.203125 100.34375 C 274.402344 100.183594 273.609375 99.988281 272.828125 99.75 C 272.046875 99.511719 271.28125 99.238281 270.527344 98.925781 C 269.773438 98.613281 269.035156 98.265625 268.316406 97.878906 C 267.597656 97.496094 266.898438 97.078125 266.21875 96.621094 C 265.539062 96.167969 264.886719 95.683594 264.253906 95.164062 C 263.621094 94.648438 263.019531 94.101562 262.441406 93.523438 C 261.863281 92.945312 261.316406 92.34375 260.800781 91.710938 C 260.28125 91.082031 259.796875 90.425781 259.34375 89.746094 C 258.890625 89.066406 258.46875 88.367188 258.085938 87.648438 C 257.699219 86.929688 257.351562 86.191406 257.039062 85.4375 C 256.726562 84.683594 256.453125 83.917969 256.214844 83.136719 C 255.976562 82.355469 255.78125 81.5625 255.621094 80.761719 C 255.460938 79.960938 255.34375 79.15625 255.261719 78.34375 C 255.183594 77.53125 255.140625 76.71875 255.140625 75.902344 L 255.140625 25.109375 C 255.140625 24.292969 255.183594 23.476562 255.261719 22.664062 C 255.34375 21.851562 255.460938 21.046875 255.621094 20.246094 C 255.78125 19.445312 255.976562 18.65625 256.214844 17.875 C 256.453125 17.09375 256.726562 16.324219 257.039062 15.570312 C 257.351562 14.816406 257.699219 14.078125 258.085938 13.359375 C 258.46875 12.640625 258.890625 11.941406 259.34375 11.261719 C 259.796875 10.582031 260.28125 9.929688 260.800781 9.296875 C 261.316406 8.667969 261.863281 8.0625 262.441406 7.484375 C 263.019531 6.910156 263.621094 6.359375 264.253906 5.84375 C 264.886719 5.324219 265.539062 4.839844 266.21875 4.386719 C 266.898438 3.933594 267.597656 3.511719 268.316406 3.128906 C 269.035156 2.742188 269.773438 2.394531 270.527344 2.082031 C 271.28125 1.769531 272.046875 1.496094 272.828125 1.257812 C 273.609375 1.023438 274.402344 0.824219 275.203125 0.664062 C 276.003906 0.503906 276.808594 0.386719 277.621094 0.304688 C 278.433594 0.226562 279.25 0.1875 280.0625 0.1875 Z M 280.0625 0.1875 " fill-opacity="1" fill-rule="nonzero"/></g><g clip-path="url(#12aa5c5952)"><path fill="#4f40cf" d="M 25.140625 127.648438 L 75.933594 127.648438 C 76.75 127.648438 77.566406 127.6875 78.375 127.765625 C 79.1875 127.847656 79.996094 127.96875 80.796875 128.125 C 81.597656 128.285156 82.386719 128.484375 83.167969 128.71875 C 83.949219 128.957031 84.71875 129.230469 85.472656 129.542969 C 86.226562 129.855469 86.960938 130.207031 87.683594 130.589844 C 88.402344 130.976562 89.101562 131.394531 89.78125 131.847656 C 90.457031 132.300781 91.113281 132.785156 91.746094 133.304688 C 92.375 133.820312 92.980469 134.371094 93.558594 134.945312 C 94.132812 135.523438 94.679688 136.128906 95.199219 136.757812 C 95.71875 137.390625 96.203125 138.042969 96.65625 138.722656 C 97.109375 139.402344 97.527344 140.101562 97.914062 140.820312 C 98.296875 141.542969 98.648438 142.277344 98.960938 143.03125 C 99.273438 143.785156 99.546875 144.554688 99.78125 145.335938 C 100.019531 146.117188 100.21875 146.90625 100.378906 147.707031 C 100.535156 148.507812 100.65625 149.3125 100.734375 150.125 C 100.816406 150.9375 100.855469 151.753906 100.855469 152.570312 L 100.855469 203.363281 C 100.855469 204.179688 100.816406 204.992188 100.734375 205.804688 C 100.65625 206.617188 100.535156 207.425781 100.378906 208.222656 C 100.21875 209.023438 100.019531 209.816406 99.78125 210.597656 C 99.546875 211.378906 99.273438 212.144531 98.960938 212.898438 C 98.648438 213.652344 98.296875 214.390625 97.914062 215.109375 C 97.527344 215.832031 97.109375 216.53125 96.65625 217.207031 C 96.203125 217.886719 95.71875 218.542969 95.199219 219.171875 C 94.679688 219.804688 94.132812 220.40625 93.558594 220.984375 C 92.980469 221.5625 92.375 222.109375 91.746094 222.628906 C 91.113281 223.144531 90.457031 223.632812 89.78125 224.085938 C 89.101562 224.539062 88.402344 224.957031 87.683594 225.339844 C 86.960938 225.726562 86.226562 226.074219 85.472656 226.386719 C 84.71875 226.699219 83.949219 226.972656 83.167969 227.210938 C 82.386719 227.449219 81.597656 227.644531 80.796875 227.804688 C 79.996094 227.964844 79.1875 228.085938 78.375 228.164062 C 77.566406 228.246094 76.75 228.285156 75.933594 228.285156 L 25.140625 228.285156 C 24.324219 228.285156 23.511719 228.246094 22.699219 228.164062 C 21.886719 228.085938 21.078125 227.964844 20.277344 227.804688 C 19.480469 227.644531 18.6875 227.449219 17.90625 227.210938 C 17.125 226.972656 16.359375 226.699219 15.605469 226.386719 C 14.851562 226.074219 14.113281 225.726562 13.394531 225.339844 C 12.671875 224.957031 11.972656 224.539062 11.296875 224.085938 C 10.617188 223.632812 9.960938 223.144531 9.332031 222.628906 C 8.699219 222.109375 8.097656 221.5625 7.519531 220.984375 C 6.941406 220.40625 6.394531 219.804688 5.875 219.171875 C 5.359375 218.542969 4.871094 217.886719 4.417969 217.207031 C 3.964844 216.53125 3.546875 215.832031 3.160156 215.109375 C 2.777344 214.390625 2.429688 213.652344 2.117188 212.898438 C 1.804688 212.144531 1.527344 211.378906 1.292969 210.597656 C 1.054688 209.816406 0.855469 209.023438 0.699219 208.222656 C 0.539062 207.425781 0.417969 206.617188 0.339844 205.804688 C 0.257812 204.992188 0.21875 204.179688 0.21875 203.363281 L 0.21875 152.570312 C 0.21875 151.753906 0.257812 150.9375 0.339844 150.125 C 0.417969 149.3125 0.539062 148.507812 0.699219 147.707031 C 0.855469 146.90625 1.054688 146.117188 1.292969 145.335938 C 1.527344 144.554688 1.804688 143.785156 2.117188 143.03125 C 2.429688 142.277344 2.777344 141.542969 3.160156 140.820312 C 3.546875 140.101562 3.964844 139.402344 4.417969 138.722656 C 4.871094 138.042969 5.359375 137.390625 5.875 136.757812 C 6.394531 136.128906 6.941406 135.523438 7.519531 134.945312 C 8.097656 134.371094 8.699219 133.820312 9.332031 133.304688 C 9.960938 132.785156 10.617188 132.300781 11.296875 131.847656 C 11.972656 131.394531 12.671875 130.976562 13.394531 130.589844 C 14.113281 130.207031 14.851562 129.855469 15.605469 129.542969 C 16.359375 129.230469 17.125 128.957031 17.90625 128.71875 C 18.6875 128.484375 19.480469 128.285156 20.277344 128.125 C 21.078125 127.96875 21.886719 127.847656 22.699219 127.765625 C 23.511719 127.6875 24.324219 127.648438 25.140625 127.648438 Z M 25.140625 127.648438 " fill-opacity="1" fill-rule="nonzero"/></g><g clip-path="url(#d8c081a3a7)"><path fill="#4f40cf" d="M 152.601562 127.648438 L 203.394531 127.648438 C 204.210938 127.648438 205.027344 127.6875 205.839844 127.765625 C 206.652344 127.847656 207.457031 127.96875 208.257812 128.125 C 209.058594 128.285156 209.847656 128.484375 210.628906 128.71875 C 211.410156 128.957031 212.179688 129.230469 212.933594 129.542969 C 213.6875 129.855469 214.425781 130.207031 215.144531 130.589844 C 215.863281 130.976562 216.5625 131.394531 217.242188 131.847656 C 217.921875 132.300781 218.574219 132.785156 219.207031 133.304688 C 219.835938 133.820312 220.441406 134.371094 221.019531 134.945312 C 221.59375 135.523438 222.144531 136.128906 222.660156 136.757812 C 223.179688 137.390625 223.664062 138.042969 224.117188 138.722656 C 224.570312 139.402344 224.992188 140.101562 225.375 140.820312 C 225.761719 141.542969 226.109375 142.277344 226.421875 143.03125 C 226.734375 143.785156 227.007812 144.554688 227.246094 145.335938 C 227.480469 146.117188 227.679688 146.90625 227.839844 147.707031 C 228 148.507812 228.117188 149.3125 228.199219 150.125 C 228.277344 150.9375 228.316406 151.753906 228.316406 152.570312 L 228.316406 203.363281 C 228.316406 204.179688 228.277344 204.992188 228.199219 205.804688 C 228.117188 206.617188 228 207.425781 227.839844 208.222656 C 227.679688 209.023438 227.480469 209.816406 227.246094 210.597656 C 227.007812 211.378906 226.734375 212.144531 226.421875 212.898438 C 226.109375 213.652344 225.761719 214.390625 225.375 215.109375 C 224.992188 215.832031 224.570312 216.53125 224.117188 217.207031 C 223.664062 217.886719 223.179688 218.542969 222.660156 219.171875 C 222.144531 219.804688 221.59375 220.40625 221.019531 220.984375 C 220.441406 221.5625 219.835938 222.109375 219.207031 222.628906 C 218.574219 223.144531 217.921875 223.632812 217.242188 224.085938 C 216.5625 224.539062 215.863281 224.957031 215.144531 225.339844 C 214.425781 225.726562 213.6875 226.074219 212.933594 226.386719 C 212.179688 226.699219 211.410156 226.972656 210.628906 227.210938 C 209.847656 227.449219 209.058594 227.644531 208.257812 227.804688 C 207.457031 227.964844 206.652344 228.085938 205.839844 228.164062 C 205.027344 228.246094 204.210938 228.285156 203.394531 228.285156 L 152.601562 228.285156 C 151.785156 228.285156 150.972656 228.246094 150.160156 228.164062 C 149.347656 228.085938 148.542969 227.964844 147.742188 227.804688 C 146.941406 227.644531 146.148438 227.449219 145.367188 227.210938 C 144.585938 226.972656 143.820312 226.699219 143.066406 226.386719 C 142.3125 226.074219 141.574219 225.726562 140.855469 225.339844 C 140.132812 224.957031 139.433594 224.539062 138.757812 224.085938 C 138.078125 223.632812 137.421875 223.144531 136.792969 222.628906 C 136.160156 222.109375 135.558594 221.5625 134.980469 220.984375 C 134.402344 220.40625 133.855469 219.804688 133.335938 219.171875 C 132.820312 218.542969 132.335938 217.886719 131.878906 217.207031 C 131.425781 216.53125 131.007812 215.832031 130.625 215.109375 C 130.238281 214.390625 129.890625 213.652344 129.578125 212.898438 C 129.265625 212.144531 128.992188 211.378906 128.753906 210.597656 C 128.515625 209.816406 128.320312 209.023438 128.160156 208.222656 C 128 207.425781 127.878906 206.617188 127.800781 205.804688 C 127.71875 204.992188 127.679688 204.179688 127.679688 203.363281 L 127.679688 152.570312 C 127.679688 151.753906 127.71875 150.9375 127.800781 150.125 C 127.878906 149.3125 128 148.507812 128.160156 147.707031 C 128.320312 146.90625 128.515625 146.117188 128.753906 145.335938 C 128.992188 144.554688 129.265625 143.785156 129.578125 143.03125 C 129.890625 142.277344 130.238281 141.542969 130.625 140.820312 C 131.007812 140.101562 131.425781 139.402344 131.878906 138.722656 C 132.335938 138.042969 132.820312 137.390625 133.335938 136.757812 C 133.855469 136.128906 134.402344 135.523438 134.980469 134.945312 C 135.558594 134.371094 136.160156 133.820312 136.792969 133.304688 C 137.421875 132.785156 138.078125 132.300781 138.757812 131.847656 C 139.433594 131.394531 140.132812 130.976562 140.855469 130.589844 C 141.574219 130.207031 142.3125 129.855469 143.066406 129.542969 C 143.820312 129.230469 144.585938 128.957031 145.367188 128.71875 C 146.148438 128.484375 146.941406 128.285156 147.742188 128.125 C 148.542969 127.96875 149.347656 127.847656 150.160156 127.765625 C 150.972656 127.6875 151.785156 127.648438 152.601562 127.648438 Z M 152.601562 127.648438 " fill-opacity="1" fill-rule="nonzero"/></g><g clip-path="url(#adc5809e12)"><path fill="#4f40cf" d="M 280.0625 127.648438 L 330.855469 127.648438 C 331.671875 127.648438 332.488281 127.6875 333.300781 127.765625 C 334.113281 127.847656 334.917969 127.96875 335.71875 128.125 C 336.519531 128.285156 337.3125 128.484375 338.089844 128.71875 C 338.871094 128.957031 339.640625 129.230469 340.394531 129.542969 C 341.148438 129.855469 341.886719 130.207031 342.605469 130.589844 C 343.324219 130.976562 344.023438 131.394531 344.703125 131.847656 C 345.382812 132.300781 346.035156 132.785156 346.667969 133.304688 C 347.296875 133.820312 347.902344 134.371094 348.480469 134.945312 C 349.058594 135.523438 349.605469 136.128906 350.121094 136.757812 C 350.640625 137.390625 351.125 138.042969 351.578125 138.722656 C 352.03125 139.402344 352.453125 140.101562 352.835938 140.820312 C 353.222656 141.542969 353.570312 142.277344 353.882812 143.03125 C 354.195312 143.785156 354.46875 144.554688 354.707031 145.335938 C 354.941406 146.117188 355.140625 146.90625 355.300781 147.707031 C 355.460938 148.507812 355.578125 149.3125 355.660156 150.125 C 355.738281 150.9375 355.78125 151.753906 355.78125 152.570312 L 355.78125 203.363281 C 355.78125 204.179688 355.738281 204.992188 355.660156 205.804688 C 355.578125 206.617188 355.460938 207.425781 355.300781 208.222656 C 355.140625 209.023438 354.941406 209.816406 354.707031 210.597656 C 354.46875 211.378906 354.195312 212.144531 353.882812 212.898438 C 353.570312 213.652344 353.222656 214.390625 352.835938 215.109375 C 352.453125 215.832031 352.03125 216.53125 351.578125 217.207031 C 351.125 217.886719 350.640625 218.542969 350.121094 219.171875 C 349.605469 219.804688 349.058594 220.40625 348.480469 220.984375 C 347.902344 221.5625 347.296875 222.109375 346.667969 222.628906 C 346.035156 223.144531 345.382812 223.632812 344.703125 224.085938 C 344.023438 224.539062 343.324219 224.957031 342.605469 225.339844 C 341.886719 225.726562 341.148438 226.074219 340.394531 226.386719 C 339.640625 226.699219 338.871094 226.972656 338.089844 227.210938 C 337.3125 227.449219 336.519531 227.644531 335.71875 227.804688 C 334.917969 227.964844 334.113281 228.085938 333.300781 228.164062 C 332.488281 228.246094 331.671875 228.285156 330.855469 228.285156 L 280.0625 228.285156 C 279.25 228.285156 278.433594 228.246094 277.621094 228.164062 C 276.808594 228.085938 276.003906 227.964844 275.203125 227.804688 C 274.402344 227.644531 273.609375 227.449219 272.828125 227.210938 C 272.046875 226.972656 271.28125 226.699219 270.527344 226.386719 C 269.773438 226.074219 269.035156 225.726562 268.316406 225.339844 C 267.597656 224.957031 266.898438 224.539062 266.21875 224.085938 C 265.539062 223.632812 264.886719 223.144531 264.253906 222.628906 C 263.621094 222.109375 263.019531 221.5625 262.441406 220.984375 C 261.863281 220.40625 261.316406 219.804688 260.800781 219.171875 C 260.28125 218.542969 259.796875 217.886719 259.34375 217.207031 C 258.890625 216.53125 258.46875 215.832031 258.085938 215.109375 C 257.699219 214.390625 257.351562 213.652344 257.039062 212.898438 C 256.726562 212.144531 256.453125 211.378906 256.214844 210.597656 C 255.976562 209.816406 255.78125 209.023438 255.621094 208.222656 C 255.460938 207.425781 255.34375 206.617188 255.261719 205.804688 C 255.183594 204.992188 255.140625 204.179688 255.140625 203.363281 L 255.140625 152.570312 C 255.140625 151.753906 255.183594 150.9375 255.261719 150.125 C 255.34375 149.3125 255.460938 148.507812 255.621094 147.707031 C 255.78125 146.90625 255.976562 146.117188 256.214844 145.335938 C 256.453125 144.554688 256.726562 143.785156 257.039062 143.03125 C 257.351562 142.277344 257.699219 141.542969 258.085938 140.820312 C 258.46875 140.101562 258.890625 139.402344 259.34375 138.722656 C 259.796875 138.042969 260.28125 137.390625 260.800781 136.757812 C 261.316406 136.128906 261.863281 135.523438 262.441406 134.945312 C 263.019531 134.371094 263.621094 133.820312 264.253906 133.304688 C 264.886719 132.785156 265.539062 132.300781 266.21875 131.847656 C 266.898438 131.394531 267.597656 130.976562 268.316406 130.589844 C 269.035156 130.207031 269.773438 129.855469 270.527344 129.542969 C 271.28125 129.230469 272.046875 128.957031 272.828125 128.71875 C 273.609375 128.484375 274.402344 128.285156 275.203125 128.125 C 276.003906 127.96875 276.808594 127.847656 277.621094 127.765625 C 278.433594 127.6875 279.25 127.648438 280.0625 127.648438 Z M 280.0625 127.648438 " fill-opacity="1" fill-rule="nonzero"/></g><g clip-path="url(#204b628713)"><path fill="#4f40cf" d="M 25.140625 255.175781 L 75.933594 255.175781 C 76.75 255.175781 77.566406 255.214844 78.375 255.296875 C 79.1875 255.375 79.996094 255.496094 80.796875 255.652344 C 81.597656 255.8125 82.386719 256.011719 83.167969 256.25 C 83.949219 256.484375 84.71875 256.761719 85.472656 257.074219 C 86.226562 257.386719 86.960938 257.734375 87.683594 258.117188 C 88.402344 258.503906 89.101562 258.921875 89.78125 259.375 C 90.457031 259.828125 91.113281 260.316406 91.746094 260.832031 C 92.375 261.351562 92.980469 261.898438 93.558594 262.476562 C 94.132812 263.050781 94.679688 263.65625 95.199219 264.289062 C 95.71875 264.917969 96.203125 265.574219 96.65625 266.25 C 97.109375 266.929688 97.527344 267.628906 97.914062 268.347656 C 98.296875 269.070312 98.648438 269.804688 98.960938 270.558594 C 99.273438 271.3125 99.546875 272.082031 99.78125 272.863281 C 100.019531 273.644531 100.21875 274.433594 100.378906 275.234375 C 100.535156 276.035156 100.65625 276.84375 100.734375 277.65625 C 100.816406 278.46875 100.855469 279.28125 100.855469 280.097656 L 100.855469 330.890625 C 100.855469 331.707031 100.816406 332.519531 100.734375 333.332031 C 100.65625 334.144531 100.535156 334.953125 100.378906 335.753906 C 100.21875 336.554688 100.019531 337.34375 99.78125 338.125 C 99.546875 338.90625 99.273438 339.671875 98.960938 340.425781 C 98.648438 341.183594 98.296875 341.917969 97.914062 342.636719 C 97.527344 343.359375 97.109375 344.058594 96.65625 344.738281 C 96.203125 345.414062 95.71875 346.070312 95.199219 346.699219 C 94.679688 347.332031 94.132812 347.9375 93.558594 348.511719 C 92.980469 349.089844 92.375 349.636719 91.746094 350.15625 C 91.113281 350.671875 90.457031 351.160156 89.78125 351.613281 C 89.101562 352.066406 88.402344 352.484375 87.683594 352.871094 C 86.960938 353.253906 86.226562 353.601562 85.472656 353.914062 C 84.71875 354.226562 83.949219 354.503906 83.167969 354.738281 C 82.386719 354.976562 81.597656 355.175781 80.796875 355.332031 C 79.996094 355.492188 79.1875 355.613281 78.375 355.691406 C 77.566406 355.773438 76.75 355.8125 75.933594 355.8125 L 25.140625 355.8125 C 24.324219 355.8125 23.511719 355.773438 22.699219 355.691406 C 21.886719 355.613281 21.078125 355.492188 20.277344 355.332031 C 19.480469 355.175781 18.6875 354.976562 17.90625 354.738281 C 17.125 354.503906 16.359375 354.226562 15.605469 353.914062 C 14.851562 353.601562 14.113281 353.253906 13.394531 352.871094 C 12.671875 352.484375 11.972656 352.066406 11.296875 351.613281 C 10.617188 351.160156 9.960938 350.671875 9.332031 350.15625 C 8.699219 349.636719 8.097656 349.089844 7.519531 348.511719 C 6.941406 347.9375 6.394531 347.332031 5.875 346.699219 C 5.359375 346.070312 4.871094 345.414062 4.417969 344.738281 C 3.964844 344.058594 3.546875 343.359375 3.160156 342.636719 C 2.777344 341.917969 2.429688 341.183594 2.117188 340.425781 C 1.804688 339.671875 1.527344 338.90625 1.292969 338.125 C 1.054688 337.34375 0.855469 336.554688 0.699219 335.753906 C 0.539062 334.953125 0.417969 334.144531 0.339844 333.332031 C 0.257812 332.519531 0.21875 331.707031 0.21875 330.890625 L 0.21875 280.097656 C 0.21875 279.28125 0.257812 278.46875 0.339844 277.65625 C 0.417969 276.84375 0.539062 276.035156 0.699219 275.234375 C 0.855469 274.433594 1.054688 273.644531 1.292969 272.863281 C 1.527344 272.082031 1.804688 271.3125 2.117188 270.558594 C 2.429688 269.804688 2.777344 269.070312 3.160156 268.347656 C 3.546875 267.628906 3.964844 266.929688 4.417969 266.25 C 4.871094 265.574219 5.359375 264.917969 5.875 264.289062 C 6.394531 263.65625 6.941406 263.050781 7.519531 262.476562 C 8.097656 261.898438 8.699219 261.351562 9.332031 260.832031 C 9.960938 260.316406 10.617188 259.828125 11.296875 259.375 C 11.972656 258.921875 12.671875 258.503906 13.394531 258.117188 C 14.113281 257.734375 14.851562 257.386719 15.605469 257.074219 C 16.359375 256.761719 17.125 256.484375 17.90625 256.25 C 18.6875 256.011719 19.480469 255.8125 20.277344 255.652344 C 21.078125 255.496094 21.886719 255.375 22.699219 255.296875 C 23.511719 255.214844 24.324219 255.175781 25.140625 255.175781 Z M 25.140625 255.175781 " fill-opacity="1" fill-rule="nonzero"/></g><g clip-path="url(#962919481c)"><path fill="#4f40cf" d="M 152.601562 255.175781 L 203.394531 255.175781 C 204.210938 255.175781 205.027344 255.214844 205.839844 255.296875 C 206.652344 255.375 207.457031 255.496094 208.257812 255.652344 C 209.058594 255.8125 209.847656 256.011719 210.628906 256.25 C 211.410156 256.484375 212.179688 256.761719 212.933594 257.074219 C 213.6875 257.386719 214.425781 257.734375 215.144531 258.117188 C 215.863281 258.503906 216.5625 258.921875 217.242188 259.375 C 217.921875 259.828125 218.574219 260.316406 219.207031 260.832031 C 219.835938 261.351562 220.441406 261.898438 221.019531 262.476562 C 221.59375 263.050781 222.144531 263.65625 222.660156 264.289062 C 223.179688 264.917969 223.664062 265.574219 224.117188 266.25 C 224.570312 266.929688 224.992188 267.628906 225.375 268.347656 C 225.761719 269.070312 226.109375 269.804688 226.421875 270.558594 C 226.734375 271.3125 227.007812 272.082031 227.246094 272.863281 C 227.480469 273.644531 227.679688 274.433594 227.839844 275.234375 C 228 276.035156 228.117188 276.84375 228.199219 277.65625 C 228.277344 278.46875 228.316406 279.28125 228.316406 280.097656 L 228.316406 330.890625 C 228.316406 331.707031 228.277344 332.519531 228.199219 333.332031 C 228.117188 334.144531 228 334.953125 227.839844 335.753906 C 227.679688 336.554688 227.480469 337.34375 227.246094 338.125 C 227.007812 338.90625 226.734375 339.671875 226.421875 340.425781 C 226.109375 341.183594 225.761719 341.917969 225.375 342.636719 C 224.992188 343.359375 224.570312 344.058594 224.117188 344.738281 C 223.664062 345.414062 223.179688 346.070312 222.660156 346.699219 C 222.144531 347.332031 221.59375 347.9375 221.019531 348.511719 C 220.441406 349.089844 219.835938 349.636719 219.207031 350.15625 C 218.574219 350.671875 217.921875 351.160156 217.242188 351.613281 C 216.5625 352.066406 215.863281 352.484375 215.144531 352.871094 C 214.425781 353.253906 213.6875 353.601562 212.933594 353.914062 C 212.179688 354.226562 211.410156 354.503906 210.628906 354.738281 C 209.847656 354.976562 209.058594 355.175781 208.257812 355.332031 C 207.457031 355.492188 206.652344 355.613281 205.839844 355.691406 C 205.027344 355.773438 204.210938 355.8125 203.394531 355.8125 L 152.601562 355.8125 C 151.785156 355.8125 150.972656 355.773438 150.160156 355.691406 C 149.347656 355.613281 148.542969 355.492188 147.742188 355.332031 C 146.941406 355.175781 146.148438 354.976562 145.367188 354.738281 C 144.585938 354.503906 143.820312 354.226562 143.066406 353.914062 C 142.3125 353.601562 141.574219 353.253906 140.855469 352.871094 C 140.132812 352.484375 139.433594 352.066406 138.757812 351.613281 C 138.078125 351.160156 137.421875 350.671875 136.792969 350.15625 C 136.160156 349.636719 135.558594 349.089844 134.980469 348.511719 C 134.402344 347.9375 133.855469 347.332031 133.335938 346.699219 C 132.820312 346.070312 132.335938 345.414062 131.878906 344.738281 C 131.425781 344.058594 131.007812 343.359375 130.625 342.636719 C 130.238281 341.917969 129.890625 341.183594 129.578125 340.425781 C 129.265625 339.671875 128.992188 338.90625 128.753906 338.125 C 128.515625 337.34375 128.320312 336.554688 128.160156 335.753906 C 128 334.953125 127.878906 334.144531 127.800781 333.332031 C 127.71875 332.519531 127.679688 331.707031 127.679688 330.890625 L 127.679688 280.097656 C 127.679688 279.28125 127.71875 278.46875 127.800781 277.65625 C 127.878906 276.84375 128 276.035156 128.160156 275.234375 C 128.320312 274.433594 128.515625 273.644531 128.753906 272.863281 C 128.992188 272.082031 129.265625 271.3125 129.578125 270.558594 C 129.890625 269.804688 130.238281 269.070312 130.625 268.347656 C 131.007812 267.628906 131.425781 266.929688 131.878906 266.25 C 132.335938 265.574219 132.820312 264.917969 133.335938 264.289062 C 133.855469 263.65625 134.402344 263.050781 134.980469 262.476562 C 135.558594 261.898438 136.160156 261.351562 136.792969 260.832031 C 137.421875 260.316406 138.078125 259.828125 138.757812 259.375 C 139.433594 258.921875 140.132812 258.503906 140.855469 258.117188 C 141.574219 257.734375 142.3125 257.386719 143.066406 257.074219 C 143.820312 256.761719 144.585938 256.484375 145.367188 256.25 C 146.148438 256.011719 146.941406 255.8125 147.742188 255.652344 C 148.542969 255.496094 149.347656 255.375 150.160156 255.296875 C 150.972656 255.214844 151.785156 255.175781 152.601562 255.175781 Z M 152.601562 255.175781 " fill-opacity="1" fill-rule="nonzero"/></g><g clip-path="url(#73ec9550c0)"><path fill="#4f40cf" d="M 280.0625 255.175781 L 330.855469 255.175781 C 331.671875 255.175781 332.488281 255.214844 333.300781 255.296875 C 334.113281 255.375 334.917969 255.496094 335.71875 255.652344 C 336.519531 255.8125 337.3125 256.011719 338.089844 256.25 C 338.871094 256.484375 339.640625 256.761719 340.394531 257.074219 C 341.148438 257.386719 341.886719 257.734375 342.605469 258.117188 C 343.324219 258.503906 344.023438 258.921875 344.703125 259.375 C 345.382812 259.828125 346.035156 260.316406 346.667969 260.832031 C 347.296875 261.351562 347.902344 261.898438 348.480469 262.476562 C 349.058594 263.050781 349.605469 263.65625 350.121094 264.289062 C 350.640625 264.917969 351.125 265.574219 351.578125 266.25 C 352.03125 266.929688 352.453125 267.628906 352.835938 268.347656 C 353.222656 269.070312 353.570312 269.804688 353.882812 270.558594 C 354.195312 271.3125 354.46875 272.082031 354.707031 272.863281 C 354.941406 273.644531 355.140625 274.433594 355.300781 275.234375 C 355.460938 276.035156 355.578125 276.84375 355.660156 277.65625 C 355.738281 278.46875 355.78125 279.28125 355.78125 280.097656 L 355.78125 330.890625 C 355.78125 331.707031 355.738281 332.519531 355.660156 333.332031 C 355.578125 334.144531 355.460938 334.953125 355.300781 335.753906 C 355.140625 336.554688 354.941406 337.34375 354.707031 338.125 C 354.46875 338.90625 354.195312 339.671875 353.882812 340.425781 C 353.570312 341.183594 353.222656 341.917969 352.835938 342.636719 C 352.453125 343.359375 352.03125 344.058594 351.578125 344.738281 C 351.125 345.414062 350.640625 346.070312 350.121094 346.699219 C 349.605469 347.332031 349.058594 347.9375 348.480469 348.511719 C 347.902344 349.089844 347.296875 349.636719 346.667969 350.15625 C 346.035156 350.671875 345.382812 351.160156 344.703125 351.613281 C 344.023438 352.066406 343.324219 352.484375 342.605469 352.871094 C 341.886719 353.253906 341.148438 353.601562 340.394531 353.914062 C 339.640625 354.226562 338.871094 354.503906 338.089844 354.738281 C 337.3125 354.976562 336.519531 355.175781 335.71875 355.332031 C 334.917969 355.492188 334.113281 355.613281 333.300781 355.691406 C 332.488281 355.773438 331.671875 355.8125 330.855469 355.8125 L 280.0625 355.8125 C 279.25 355.8125 278.433594 355.773438 277.621094 355.691406 C 276.808594 355.613281 276.003906 355.492188 275.203125 355.332031 C 274.402344 355.175781 273.609375 354.976562 272.828125 354.738281 C 272.046875 354.503906 271.28125 354.226562 270.527344 353.914062 C 269.773438 353.601562 269.035156 353.253906 268.316406 352.871094 C 267.597656 352.484375 266.898438 352.066406 266.21875 351.613281 C 265.539062 351.160156 264.886719 350.671875 264.253906 350.15625 C 263.621094 349.636719 263.019531 349.089844 262.441406 348.511719 C 261.863281 347.9375 261.316406 347.332031 260.800781 346.699219 C 260.28125 346.070312 259.796875 345.414062 259.34375 344.738281 C 258.890625 344.058594 258.46875 343.359375 258.085938 342.636719 C 257.699219 341.917969 257.351562 341.183594 257.039062 340.425781 C 256.726562 339.671875 256.453125 338.90625 256.214844 338.125 C 255.976562 337.34375 255.78125 336.554688 255.621094 335.753906 C 255.460938 334.953125 255.34375 334.144531 255.261719 333.332031 C 255.183594 332.519531 255.140625 331.707031 255.140625 330.890625 L 255.140625 280.097656 C 255.140625 279.28125 255.183594 278.46875 255.261719 277.65625 C 255.34375 276.84375 255.460938 276.035156 255.621094 275.234375 C 255.78125 274.433594 255.976562 273.644531 256.214844 272.863281 C 256.453125 272.082031 256.726562 271.3125 257.039062 270.558594 C 257.351562 269.804688 257.699219 269.070312 258.085938 268.347656 C 258.46875 267.628906 258.890625 266.929688 259.34375 266.25 C 259.796875 265.574219 260.28125 264.917969 260.800781 264.289062 C 261.316406 263.65625 261.863281 263.050781 262.441406 262.476562 C 263.019531 261.898438 263.621094 261.351562 264.253906 260.832031 C 264.886719 260.316406 265.539062 259.828125 266.21875 259.375 C 266.898438 258.921875 267.597656 258.503906 268.316406 258.117188 C 269.035156 257.734375 269.773438 257.386719 270.527344 257.074219 C 271.28125 256.761719 272.046875 256.484375 272.828125 256.25 C 273.609375 256.011719 274.402344 255.8125 275.203125 255.652344 C 276.003906 255.496094 276.808594 255.375 277.621094 255.296875 C 278.433594 255.214844 279.25 255.175781 280.0625 255.175781 Z M 280.0625 255.175781 " fill-opacity="1" fill-rule="nonzero"/></g><g clip-path="url(#a928a70ce7)"><g clip-path="url(#532c574a82)"><g clip-path="url(#2b43e5f8c9)"><path fill="#4f40cf" d="M 38.84375 40.359375 L 39.65625 39.589844 L 40.464844 38.820312 C 81.265625 81.800781 122.0625 124.785156 162.859375 167.765625 C 162.320312 168.28125 161.777344 168.792969 161.238281 169.304688 C 120.441406 126.324219 79.640625 83.339844 38.84375 40.359375 " fill-opacity="1" fill-rule="nonzero"/></g></g></g><g clip-path="url(#fa8f0ab9ee)"><path fill="#4f40cf" d="M 175.777344 11.914062 L 178.015625 11.914062 C 178.015625 71.175781 178.015625 130.4375 178.015625 189.699219 C 177.269531 189.699219 176.523438 189.699219 175.777344 189.703125 C 175.777344 130.4375 175.777344 71.175781 175.777344 11.914062 " fill-opacity="1" fill-rule="nonzero"/></g><g clip-path="url(#91a5abd901)"><g clip-path="url(#5da5b0b33d)"><g clip-path="url(#3a4ebc556d)"><path fill="#4f40cf" d="M 314.339844 36.636719 L 315.988281 38.144531 C 275.984375 81.867188 235.984375 125.59375 195.980469 169.316406 C 195.429688 168.8125 194.878906 168.308594 194.328125 167.808594 C 234.332031 124.082031 274.335938 80.359375 314.339844 36.636719 " fill-opacity="1" fill-rule="nonzero"/></g></g></g><g clip-path="url(#b4c3312070)"><path fill="#4f40cf" d="M 178 169.296875 L 180.238281 169.296875 C 180.238281 228.558594 180.238281 287.820312 180.238281 347.082031 C 179.492188 347.082031 178.746094 347.082031 178 347.085938 C 178 287.820312 178 228.558594 178 169.296875 " fill-opacity="1" fill-rule="nonzero"/></g><g clip-path="url(#24b9e5a8a3)"><g clip-path="url(#b9250a18b5)"><g clip-path="url(#4ccc10afe7)"><path fill="#4f40cf" d="M 174.152344 177.953125 L 175.800781 179.460938 C 135.800781 223.1875 95.796875 266.910156 55.792969 310.632812 C 55.242188 310.128906 54.691406 309.628906 54.144531 309.125 C 94.144531 265.402344 134.148438 221.675781 174.152344 177.953125 " fill-opacity="1" fill-rule="nonzero"/></g></g></g><g clip-path="url(#4b5d90779a)"><g clip-path="url(#4759e879c7)"><g clip-path="url(#851bf7a4a1)"><path fill="#4f40cf" d="M 179.097656 179.480469 L 179.910156 178.710938 L 180.71875 177.941406 C 221.519531 220.925781 262.316406 263.90625 303.113281 306.890625 C 302.574219 307.402344 302.035156 307.917969 301.492188 308.429688 C 260.695312 265.445312 219.894531 222.464844 179.097656 179.480469 " fill-opacity="1" fill-rule="nonzero"/></g></g></g><g clip-path="url(#35c2eac77e)"><path fill="#4f40cf" d="M 194.339844 172.53125 L 194.339844 174.769531 C 135.078125 174.769531 75.816406 174.769531 16.554688 174.769531 C 16.554688 174.023438 16.554688 173.277344 16.554688 172.53125 C 75.816406 172.53125 135.078125 172.53125 194.339844 172.53125 " fill-opacity="1" fill-rule="nonzero"/></g><g clip-path="url(#284ee3e659)"><path fill="#4f40cf" d="M 350.292969 173.644531 L 350.292969 175.878906 C 291.03125 175.878906 231.769531 175.878906 172.503906 175.878906 C 172.503906 175.132812 172.503906 174.386719 172.503906 173.644531 C 231.769531 173.644531 291.03125 173.644531 350.292969 173.644531 " fill-opacity="1" fill-rule="nonzero"/></g></g></g></svg>