<svg xmlns="http://www.w3.org/2000/svg" xmlns:xlink="http://www.w3.org/1999/xlink" width="2000" zoomAndPan="magnify" viewBox="0 0 1500 1499.999933" height="2000" preserveAspectRatio="xMidYMid meet" version="1.0"><defs><g/><clipPath id="f943885924"><path d="M 0.0664062 0.566406 L 166.835938 0.566406 L 166.835938 167.332031 L 0.0664062 167.332031 Z M 0.0664062 0.566406 " clip-rule="nonzero"/></clipPath><clipPath id="7f0871b7f3"><path d="M 211.21875 0.566406 L 377.988281 0.566406 L 377.988281 167.332031 L 211.21875 167.332031 Z M 211.21875 0.566406 " clip-rule="nonzero"/></clipPath><clipPath id="517b3d68ae"><path d="M 422.371094 0.566406 L 589.136719 0.566406 L 589.136719 167.332031 L 422.371094 167.332031 Z M 422.371094 0.566406 " clip-rule="nonzero"/></clipPath><clipPath id="ae60ce81f8"><path d="M 0.0664062 211.71875 L 166.835938 211.71875 L 166.835938 378.484375 L 0.0664062 378.484375 Z M 0.0664062 211.71875 " clip-rule="nonzero"/></clipPath><clipPath id="30415d8cb4"><path d="M 211.21875 211.71875 L 377.988281 211.71875 L 377.988281 378.484375 L 211.21875 378.484375 Z M 211.21875 211.71875 " clip-rule="nonzero"/></clipPath><clipPath id="ae47f7a605"><path d="M 422.371094 211.71875 L 589.136719 211.71875 L 589.136719 378.484375 L 422.371094 378.484375 Z M 422.371094 211.71875 " clip-rule="nonzero"/></clipPath><clipPath id="cb7bfe0a11"><path d="M 0.0664062 422.980469 L 166.835938 422.980469 L 166.835938 589.746094 L 0.0664062 589.746094 Z M 0.0664062 422.980469 " clip-rule="nonzero"/></clipPath><clipPath id="ca658f2db5"><path d="M 211.21875 422.980469 L 377.988281 422.980469 L 377.988281 589.746094 L 211.21875 589.746094 Z M 211.21875 422.980469 " clip-rule="nonzero"/></clipPath><clipPath id="8023608703"><path d="M 422.371094 422.980469 L 589.136719 422.980469 L 589.136719 589.746094 L 422.371094 589.746094 Z M 422.371094 422.980469 " clip-rule="nonzero"/></clipPath><clipPath id="7fe79f5bbc"><path d="M 64 64 L 270 64 L 270 281 L 64 281 Z M 64 64 " clip-rule="nonzero"/></clipPath><clipPath id="64903ae0a3"><path d="M 64.074219 67.140625 L 66.746094 64.605469 L 269.496094 278.214844 L 266.828125 280.746094 Z M 64.074219 67.140625 " clip-rule="nonzero"/></clipPath><clipPath id="85c10ef719"><path d="M 64.074219 67.140625 L 66.746094 64.605469 L 269.496094 278.214844 L 266.828125 280.746094 Z M 64.074219 67.140625 " clip-rule="nonzero"/></clipPath><clipPath id="72be0280c9"><path d="M 290.898438 20.027344 L 294.578125 20.027344 L 294.578125 314.539062 L 290.898438 314.539062 Z M 290.898438 20.027344 " clip-rule="nonzero"/></clipPath><clipPath id="11264b7f2c"><path d="M 321 60 L 524 60 L 524 281 L 321 281 Z M 321 60 " clip-rule="nonzero"/></clipPath><clipPath id="bb92b64a19"><path d="M 520.414062 60.972656 L 523.128906 63.457031 L 324.332031 280.746094 L 321.613281 278.261719 Z M 520.414062 60.972656 " clip-rule="nonzero"/></clipPath><clipPath id="f9463b4f44"><path d="M 520.414062 60.972656 L 523.128906 63.457031 L 324.332031 280.746094 L 321.613281 278.261719 Z M 520.414062 60.972656 " clip-rule="nonzero"/></clipPath><clipPath id="1cdec80ac7"><path d="M 294.578125 280.746094 L 298.261719 280.746094 L 298.261719 575.257812 L 294.578125 575.257812 Z M 294.578125 280.746094 " clip-rule="nonzero"/></clipPath><clipPath id="84d7965b02"><path d="M 89 295 L 291 295 L 291 515 L 89 515 Z M 89 295 " clip-rule="nonzero"/></clipPath><clipPath id="bae51eb421"><path d="M 288.179688 295.078125 L 290.898438 297.5625 L 92.097656 514.851562 L 89.382812 512.367188 Z M 288.179688 295.078125 " clip-rule="nonzero"/></clipPath><clipPath id="f3ba6fc4ad"><path d="M 288.179688 295.078125 L 290.898438 297.5625 L 92.097656 514.851562 L 89.382812 512.367188 Z M 288.179688 295.078125 " clip-rule="nonzero"/></clipPath><clipPath id="f6ec8f1ee7"><path d="M 296 295 L 502 295 L 502 512 L 296 512 Z M 296 295 " clip-rule="nonzero"/></clipPath><clipPath id="af0d2a56ce"><path d="M 296.417969 297.609375 L 299.089844 295.078125 L 501.839844 508.683594 L 499.171875 511.21875 Z M 296.417969 297.609375 " clip-rule="nonzero"/></clipPath><clipPath id="52140c271b"><path d="M 296.417969 297.609375 L 299.089844 295.078125 L 501.839844 508.683594 L 499.171875 511.21875 Z M 296.417969 297.609375 " clip-rule="nonzero"/></clipPath><clipPath id="e95de7adb9"><path d="M 27.105469 286.070312 L 321.613281 286.070312 L 321.613281 289.753906 L 27.105469 289.753906 Z M 27.105469 286.070312 " clip-rule="nonzero"/></clipPath><clipPath id="26e1e68936"><path d="M 285.453125 287.914062 L 579.964844 287.914062 L 579.964844 291.59375 L 285.453125 291.59375 Z M 285.453125 287.914062 " clip-rule="nonzero"/></clipPath><clipPath id="4c9b9a4ed6"><path d="M 625 79 L 1401.601562 79 L 1401.601562 296 L 625 296 Z M 625 79 " clip-rule="nonzero"/></clipPath><clipPath id="0980e74149"><rect x="0" width="777" y="0" height="217"/></clipPath><clipPath id="1715cda0a3"><rect x="0" width="569" y="0" height="217"/></clipPath><clipPath id="5766937b06"><rect x="0" width="1402" y="0" height="590"/></clipPath></defs><g transform="matrix(1, 0, 0, 1, 60, 423)"><g clip-path="url(#5766937b06)"><g clip-path="url(#f943885924)"><path fill="#4f40cf" d="M 41.355469 0.566406 L 125.496094 0.566406 C 126.847656 0.566406 128.199219 0.632812 129.542969 0.765625 C 130.890625 0.898438 132.226562 1.097656 133.550781 1.359375 C 134.878906 1.625 136.1875 1.953125 137.480469 2.34375 C 138.777344 2.738281 140.046875 3.191406 141.296875 3.710938 C 142.546875 4.226562 143.765625 4.804688 144.960938 5.441406 C 146.152344 6.078125 147.308594 6.773438 148.433594 7.523438 C 149.558594 8.277344 150.644531 9.082031 151.6875 9.9375 C 152.734375 10.796875 153.734375 11.703125 154.691406 12.660156 C 155.648438 13.613281 156.554688 14.617188 157.410156 15.660156 C 158.269531 16.707031 159.074219 17.789062 159.824219 18.914062 C 160.578125 20.039062 161.269531 21.199219 161.90625 22.390625 C 162.546875 23.582031 163.121094 24.804688 163.640625 26.054688 C 164.15625 27.300781 164.613281 28.574219 165.003906 29.867188 C 165.398438 31.160156 165.726562 32.472656 165.988281 33.796875 C 166.253906 35.125 166.453125 36.460938 166.585938 37.804688 C 166.71875 39.152344 166.78125 40.5 166.78125 41.851562 L 166.78125 125.996094 C 166.78125 127.347656 166.71875 128.695312 166.585938 130.042969 C 166.453125 131.386719 166.253906 132.722656 165.988281 134.050781 C 165.726562 135.375 165.398438 136.6875 165.003906 137.980469 C 164.613281 139.273438 164.15625 140.546875 163.640625 141.792969 C 163.121094 143.042969 162.546875 144.265625 161.90625 145.457031 C 161.269531 146.648438 160.578125 147.808594 159.824219 148.933594 C 159.074219 150.058594 158.269531 151.140625 157.410156 152.1875 C 156.554688 153.230469 155.648438 154.234375 154.691406 155.1875 C 153.734375 156.144531 152.734375 157.050781 151.6875 157.910156 C 150.644531 158.765625 149.558594 159.570312 148.433594 160.324219 C 147.308594 161.074219 146.152344 161.769531 144.960938 162.40625 C 143.765625 163.042969 142.546875 163.621094 141.296875 164.136719 C 140.046875 164.65625 138.777344 165.109375 137.480469 165.503906 C 136.1875 165.894531 134.878906 166.222656 133.550781 166.488281 C 132.226562 166.75 130.890625 166.949219 129.542969 167.082031 C 128.199219 167.214844 126.847656 167.28125 125.496094 167.28125 L 41.355469 167.28125 C 40.003906 167.28125 38.652344 167.214844 37.308594 167.082031 C 35.960938 166.949219 34.625 166.75 33.300781 166.488281 C 31.972656 166.222656 30.664062 165.894531 29.371094 165.503906 C 28.074219 165.109375 26.804688 164.65625 25.554688 164.136719 C 24.304688 163.621094 23.085938 163.042969 21.890625 162.40625 C 20.699219 161.769531 19.542969 161.074219 18.417969 160.324219 C 17.292969 159.570312 16.207031 158.769531 15.164062 157.910156 C 14.117188 157.050781 13.117188 156.144531 12.160156 155.1875 C 11.203125 154.234375 10.296875 153.230469 9.441406 152.1875 C 8.582031 151.140625 7.777344 150.058594 7.027344 148.933594 C 6.273438 147.808594 5.582031 146.648438 4.941406 145.457031 C 4.304688 144.265625 3.726562 143.042969 3.210938 141.792969 C 2.695312 140.546875 2.238281 139.273438 1.847656 137.980469 C 1.453125 136.6875 1.125 135.375 0.863281 134.050781 C 0.597656 132.722656 0.398438 131.386719 0.265625 130.042969 C 0.132812 128.695312 0.0664062 127.347656 0.0664062 125.996094 L 0.0664062 41.851562 C 0.0664062 40.5 0.132812 39.152344 0.265625 37.804688 C 0.398438 36.460938 0.597656 35.125 0.863281 33.796875 C 1.125 32.472656 1.453125 31.160156 1.847656 29.867188 C 2.238281 28.574219 2.695312 27.300781 3.210938 26.054688 C 3.726562 24.804688 4.304688 23.582031 4.941406 22.390625 C 5.582031 21.199219 6.273438 20.039062 7.027344 18.914062 C 7.777344 17.789062 8.582031 16.707031 9.441406 15.660156 C 10.296875 14.617188 11.203125 13.613281 12.160156 12.660156 C 13.117188 11.703125 14.117188 10.796875 15.164062 9.9375 C 16.207031 9.082031 17.292969 8.277344 18.417969 7.523438 C 19.542969 6.773438 20.699219 6.078125 21.890625 5.441406 C 23.085938 4.804688 24.304688 4.226562 25.554688 3.710938 C 26.804688 3.191406 28.074219 2.738281 29.371094 2.34375 C 30.664062 1.953125 31.972656 1.625 33.300781 1.359375 C 34.625 1.097656 35.960938 0.898438 37.308594 0.765625 C 38.652344 0.632812 40.003906 0.566406 41.355469 0.566406 Z M 41.355469 0.566406 " fill-opacity="1" fill-rule="nonzero"/></g><g clip-path="url(#7f0871b7f3)"><path fill="#4f40cf" d="M 252.507812 0.566406 L 336.648438 0.566406 C 338 0.566406 339.351562 0.632812 340.695312 0.765625 C 342.042969 0.898438 343.378906 1.097656 344.703125 1.359375 C 346.03125 1.625 347.339844 1.953125 348.632812 2.34375 C 349.925781 2.738281 351.199219 3.191406 352.449219 3.710938 C 353.699219 4.226562 354.917969 4.804688 356.109375 5.441406 C 357.304688 6.078125 358.460938 6.773438 359.585938 7.523438 C 360.710938 8.277344 361.796875 9.082031 362.839844 9.9375 C 363.886719 10.796875 364.886719 11.703125 365.84375 12.660156 C 366.796875 13.613281 367.707031 14.617188 368.5625 15.660156 C 369.421875 16.707031 370.226562 17.789062 370.976562 18.914062 C 371.726562 20.039062 372.421875 21.199219 373.058594 22.390625 C 373.699219 23.582031 374.273438 24.804688 374.792969 26.054688 C 375.308594 27.300781 375.765625 28.574219 376.15625 29.867188 C 376.550781 31.160156 376.878906 32.472656 377.140625 33.796875 C 377.40625 35.125 377.605469 36.460938 377.734375 37.804688 C 377.867188 39.152344 377.933594 40.5 377.933594 41.851562 L 377.933594 125.996094 C 377.933594 127.347656 377.867188 128.695312 377.734375 130.042969 C 377.605469 131.386719 377.40625 132.722656 377.140625 134.050781 C 376.878906 135.375 376.550781 136.6875 376.15625 137.980469 C 375.765625 139.273438 375.308594 140.546875 374.792969 141.792969 C 374.273438 143.042969 373.699219 144.265625 373.058594 145.457031 C 372.421875 146.648438 371.726562 147.808594 370.976562 148.933594 C 370.226562 150.058594 369.421875 151.140625 368.5625 152.1875 C 367.707031 153.230469 366.796875 154.234375 365.84375 155.1875 C 364.886719 156.144531 363.886719 157.050781 362.839844 157.910156 C 361.796875 158.765625 360.710938 159.570312 359.585938 160.324219 C 358.460938 161.074219 357.304688 161.769531 356.109375 162.40625 C 354.917969 163.042969 353.699219 163.621094 352.449219 164.136719 C 351.199219 164.65625 349.925781 165.109375 348.632812 165.503906 C 347.339844 165.894531 346.03125 166.222656 344.703125 166.488281 C 343.378906 166.75 342.042969 166.949219 340.695312 167.082031 C 339.351562 167.214844 338 167.28125 336.648438 167.28125 L 252.507812 167.28125 C 251.152344 167.28125 249.804688 167.214844 248.460938 167.082031 C 247.113281 166.949219 245.777344 166.75 244.453125 166.488281 C 243.125 166.222656 241.816406 165.894531 240.519531 165.503906 C 239.226562 165.109375 237.957031 164.65625 236.707031 164.136719 C 235.457031 163.621094 234.238281 163.042969 233.042969 162.40625 C 231.851562 161.769531 230.691406 161.074219 229.570312 160.324219 C 228.445312 159.570312 227.359375 158.769531 226.316406 157.910156 C 225.269531 157.050781 224.269531 156.144531 223.3125 155.1875 C 222.355469 154.234375 221.449219 153.230469 220.589844 152.1875 C 219.734375 151.140625 218.929688 150.058594 218.179688 148.933594 C 217.425781 147.808594 216.734375 146.648438 216.09375 145.457031 C 215.457031 144.265625 214.878906 143.042969 214.363281 141.792969 C 213.84375 140.546875 213.390625 139.273438 212.996094 137.980469 C 212.605469 136.6875 212.277344 135.375 212.011719 134.050781 C 211.75 132.722656 211.550781 131.386719 211.417969 130.042969 C 211.285156 128.695312 211.21875 127.347656 211.21875 125.996094 L 211.21875 41.851562 C 211.21875 40.5 211.285156 39.152344 211.417969 37.804688 C 211.550781 36.460938 211.75 35.125 212.011719 33.796875 C 212.277344 32.472656 212.605469 31.160156 212.996094 29.867188 C 213.390625 28.574219 213.84375 27.300781 214.363281 26.054688 C 214.878906 24.804688 215.457031 23.582031 216.09375 22.390625 C 216.734375 21.199219 217.425781 20.039062 218.179688 18.914062 C 218.929688 17.789062 219.734375 16.707031 220.589844 15.660156 C 221.449219 14.617188 222.355469 13.613281 223.3125 12.660156 C 224.269531 11.703125 225.269531 10.796875 226.316406 9.9375 C 227.359375 9.082031 228.445312 8.277344 229.570312 7.523438 C 230.691406 6.773438 231.851562 6.078125 233.042969 5.441406 C 234.238281 4.804688 235.457031 4.226562 236.707031 3.710938 C 237.957031 3.191406 239.226562 2.738281 240.519531 2.34375 C 241.816406 1.953125 243.125 1.625 244.453125 1.359375 C 245.777344 1.097656 247.113281 0.898438 248.460938 0.765625 C 249.804688 0.632812 251.152344 0.566406 252.507812 0.566406 Z M 252.507812 0.566406 " fill-opacity="1" fill-rule="nonzero"/></g><g clip-path="url(#517b3d68ae)"><path fill="#4f40cf" d="M 463.65625 0.566406 L 547.800781 0.566406 C 549.152344 0.566406 550.5 0.632812 551.847656 0.765625 C 553.191406 0.898438 554.527344 1.097656 555.855469 1.359375 C 557.179688 1.625 558.492188 1.953125 559.785156 2.34375 C 561.078125 2.738281 562.351562 3.191406 563.601562 3.710938 C 564.847656 4.226562 566.070312 4.804688 567.261719 5.441406 C 568.457031 6.078125 569.613281 6.773438 570.738281 7.523438 C 571.863281 8.277344 572.945312 9.082031 573.992188 9.9375 C 575.039062 10.796875 576.039062 11.703125 576.996094 12.660156 C 577.949219 13.613281 578.855469 14.617188 579.714844 15.660156 C 580.574219 16.707031 581.378906 17.789062 582.128906 18.914062 C 582.878906 20.039062 583.574219 21.199219 584.210938 22.390625 C 584.847656 23.582031 585.425781 24.804688 585.945312 26.054688 C 586.460938 27.300781 586.917969 28.574219 587.308594 29.867188 C 587.703125 31.160156 588.03125 32.472656 588.292969 33.796875 C 588.558594 35.125 588.753906 36.460938 588.886719 37.804688 C 589.019531 39.152344 589.085938 40.5 589.085938 41.851562 L 589.085938 125.996094 C 589.085938 127.347656 589.019531 128.695312 588.886719 130.042969 C 588.753906 131.386719 588.558594 132.722656 588.292969 134.050781 C 588.03125 135.375 587.703125 136.6875 587.308594 137.980469 C 586.917969 139.273438 586.460938 140.546875 585.945312 141.792969 C 585.425781 143.042969 584.847656 144.265625 584.210938 145.457031 C 583.574219 146.648438 582.878906 147.808594 582.128906 148.933594 C 581.378906 150.058594 580.574219 151.140625 579.714844 152.1875 C 578.855469 153.230469 577.949219 154.234375 576.996094 155.1875 C 576.039062 156.144531 575.039062 157.050781 573.992188 157.910156 C 572.945312 158.765625 571.863281 159.570312 570.738281 160.324219 C 569.613281 161.074219 568.457031 161.769531 567.261719 162.40625 C 566.070312 163.042969 564.847656 163.621094 563.601562 164.136719 C 562.351562 164.65625 561.078125 165.109375 559.785156 165.503906 C 558.492188 165.894531 557.179688 166.222656 555.855469 166.488281 C 554.527344 166.75 553.191406 166.949219 551.847656 167.082031 C 550.5 167.214844 549.152344 167.28125 547.800781 167.28125 L 463.65625 167.28125 C 462.304688 167.28125 460.957031 167.214844 459.609375 167.082031 C 458.265625 166.949219 456.929688 166.75 455.601562 166.488281 C 454.277344 166.222656 452.96875 165.894531 451.671875 165.503906 C 450.378906 165.109375 449.109375 164.65625 447.859375 164.136719 C 446.609375 163.621094 445.386719 163.042969 444.195312 162.40625 C 443.003906 161.769531 441.84375 161.074219 440.71875 160.324219 C 439.597656 159.570312 438.511719 158.769531 437.464844 157.910156 C 436.421875 157.050781 435.421875 156.144531 434.464844 155.1875 C 433.507812 154.234375 432.601562 153.230469 431.742188 152.1875 C 430.886719 151.140625 430.082031 150.058594 429.328125 148.933594 C 428.578125 147.808594 427.882812 146.648438 427.246094 145.457031 C 426.609375 144.265625 426.03125 143.042969 425.515625 141.792969 C 424.996094 140.546875 424.542969 139.273438 424.148438 137.980469 C 423.757812 136.6875 423.429688 135.375 423.164062 134.050781 C 422.902344 132.722656 422.703125 131.386719 422.570312 130.042969 C 422.4375 128.695312 422.371094 127.347656 422.371094 125.996094 L 422.371094 41.851562 C 422.371094 40.5 422.4375 39.152344 422.570312 37.804688 C 422.703125 36.460938 422.902344 35.125 423.164062 33.796875 C 423.429688 32.472656 423.757812 31.160156 424.148438 29.867188 C 424.542969 28.574219 424.996094 27.300781 425.515625 26.054688 C 426.03125 24.804688 426.609375 23.582031 427.246094 22.390625 C 427.882812 21.199219 428.578125 20.039062 429.328125 18.914062 C 430.082031 17.789062 430.886719 16.707031 431.742188 15.660156 C 432.601562 14.617188 433.507812 13.613281 434.464844 12.660156 C 435.421875 11.703125 436.421875 10.796875 437.464844 9.9375 C 438.511719 9.082031 439.597656 8.277344 440.71875 7.523438 C 441.84375 6.773438 443.003906 6.078125 444.195312 5.441406 C 445.386719 4.804688 446.609375 4.226562 447.859375 3.710938 C 449.109375 3.191406 450.378906 2.738281 451.671875 2.34375 C 452.96875 1.953125 454.277344 1.625 455.601562 1.359375 C 456.929688 1.097656 458.265625 0.898438 459.609375 0.765625 C 460.957031 0.632812 462.304688 0.566406 463.65625 0.566406 Z M 463.65625 0.566406 " fill-opacity="1" fill-rule="nonzero"/></g><g clip-path="url(#ae60ce81f8)"><path fill="#4f40cf" d="M 41.355469 211.71875 L 125.496094 211.71875 C 126.847656 211.71875 128.199219 211.785156 129.542969 211.917969 C 130.890625 212.050781 132.226562 212.246094 133.550781 212.511719 C 134.878906 212.773438 136.1875 213.101562 137.480469 213.496094 C 138.777344 213.886719 140.046875 214.34375 141.296875 214.859375 C 142.546875 215.378906 143.765625 215.957031 144.960938 216.59375 C 146.152344 217.230469 147.308594 217.925781 148.433594 218.675781 C 149.558594 219.425781 150.644531 220.230469 151.6875 221.089844 C 152.734375 221.949219 153.734375 222.855469 154.691406 223.8125 C 155.648438 224.765625 156.554688 225.765625 157.410156 226.8125 C 158.269531 227.859375 159.074219 228.941406 159.824219 230.066406 C 160.578125 231.191406 161.269531 232.347656 161.90625 233.542969 C 162.546875 234.734375 163.121094 235.957031 163.640625 237.203125 C 164.15625 238.453125 164.613281 239.726562 165.003906 241.019531 C 165.398438 242.3125 165.726562 243.625 165.988281 244.949219 C 166.253906 246.277344 166.453125 247.613281 166.585938 248.957031 C 166.71875 250.304688 166.78125 251.652344 166.78125 253.003906 L 166.78125 337.148438 C 166.78125 338.5 166.71875 339.847656 166.585938 341.195312 C 166.453125 342.539062 166.253906 343.875 165.988281 345.203125 C 165.726562 346.527344 165.398438 347.835938 165.003906 349.132812 C 164.613281 350.425781 164.15625 351.699219 163.640625 352.945312 C 163.121094 354.195312 162.546875 355.417969 161.90625 356.609375 C 161.269531 357.800781 160.578125 358.960938 159.824219 360.085938 C 159.074219 361.207031 158.269531 362.292969 157.410156 363.339844 C 156.554688 364.382812 155.648438 365.382812 154.691406 366.339844 C 153.734375 367.296875 152.734375 368.203125 151.6875 369.0625 C 150.644531 369.917969 149.558594 370.722656 148.433594 371.476562 C 147.308594 372.226562 146.152344 372.921875 144.960938 373.558594 C 143.765625 374.195312 142.546875 374.773438 141.296875 375.289062 C 140.046875 375.808594 138.777344 376.261719 137.480469 376.65625 C 136.1875 377.046875 134.878906 377.375 133.550781 377.640625 C 132.226562 377.902344 130.890625 378.101562 129.542969 378.234375 C 128.199219 378.367188 126.847656 378.433594 125.496094 378.433594 L 41.355469 378.433594 C 40.003906 378.433594 38.652344 378.367188 37.308594 378.234375 C 35.960938 378.101562 34.625 377.902344 33.300781 377.640625 C 31.972656 377.375 30.664062 377.046875 29.371094 376.65625 C 28.074219 376.261719 26.804688 375.808594 25.554688 375.289062 C 24.304688 374.773438 23.085938 374.195312 21.890625 373.558594 C 20.699219 372.921875 19.542969 372.226562 18.417969 371.476562 C 17.292969 370.722656 16.207031 369.917969 15.164062 369.0625 C 14.117188 368.203125 13.117188 367.296875 12.160156 366.339844 C 11.203125 365.382812 10.296875 364.382812 9.441406 363.339844 C 8.582031 362.292969 7.777344 361.207031 7.027344 360.085938 C 6.273438 358.960938 5.582031 357.800781 4.941406 356.609375 C 4.304688 355.417969 3.726562 354.195312 3.210938 352.945312 C 2.695312 351.699219 2.238281 350.425781 1.847656 349.132812 C 1.453125 347.835938 1.125 346.527344 0.863281 345.203125 C 0.597656 343.875 0.398438 342.539062 0.265625 341.195312 C 0.132812 339.847656 0.0664062 338.5 0.0664062 337.148438 L 0.0664062 253.003906 C 0.0664062 251.652344 0.132812 250.304688 0.265625 248.957031 C 0.398438 247.613281 0.597656 246.277344 0.863281 244.949219 C 1.125 243.625 1.453125 242.3125 1.847656 241.019531 C 2.238281 239.726562 2.695312 238.453125 3.210938 237.203125 C 3.726562 235.957031 4.304688 234.734375 4.941406 233.542969 C 5.582031 232.347656 6.273438 231.191406 7.027344 230.066406 C 7.777344 228.941406 8.582031 227.859375 9.441406 226.8125 C 10.296875 225.765625 11.203125 224.765625 12.160156 223.8125 C 13.117188 222.855469 14.117188 221.949219 15.164062 221.089844 C 16.207031 220.230469 17.292969 219.425781 18.417969 218.675781 C 19.542969 217.925781 20.699219 217.230469 21.890625 216.59375 C 23.085938 215.957031 24.304688 215.378906 25.554688 214.859375 C 26.804688 214.34375 28.074219 213.886719 29.371094 213.496094 C 30.664062 213.101562 31.972656 212.773438 33.300781 212.511719 C 34.625 212.246094 35.960938 212.050781 37.308594 211.917969 C 38.652344 211.785156 40.003906 211.71875 41.355469 211.71875 Z M 41.355469 211.71875 " fill-opacity="1" fill-rule="nonzero"/></g><g clip-path="url(#30415d8cb4)"><path fill="#4f40cf" d="M 252.507812 211.71875 L 336.648438 211.71875 C 338 211.71875 339.351562 211.785156 340.695312 211.917969 C 342.042969 212.050781 343.378906 212.246094 344.703125 212.511719 C 346.03125 212.773438 347.339844 213.101562 348.632812 213.496094 C 349.925781 213.886719 351.199219 214.34375 352.449219 214.859375 C 353.699219 215.378906 354.917969 215.957031 356.109375 216.59375 C 357.304688 217.230469 358.460938 217.925781 359.585938 218.675781 C 360.710938 219.425781 361.796875 220.230469 362.839844 221.089844 C 363.886719 221.949219 364.886719 222.855469 365.84375 223.8125 C 366.796875 224.765625 367.707031 225.765625 368.5625 226.8125 C 369.421875 227.859375 370.226562 228.941406 370.976562 230.066406 C 371.726562 231.191406 372.421875 232.347656 373.058594 233.542969 C 373.699219 234.734375 374.273438 235.957031 374.792969 237.203125 C 375.308594 238.453125 375.765625 239.726562 376.15625 241.019531 C 376.550781 242.3125 376.878906 243.625 377.140625 244.949219 C 377.40625 246.277344 377.605469 247.613281 377.734375 248.957031 C 377.867188 250.304688 377.933594 251.652344 377.933594 253.003906 L 377.933594 337.148438 C 377.933594 338.5 377.867188 339.847656 377.734375 341.195312 C 377.605469 342.539062 377.40625 343.875 377.140625 345.203125 C 376.878906 346.527344 376.550781 347.835938 376.15625 349.132812 C 375.765625 350.425781 375.308594 351.699219 374.792969 352.945312 C 374.273438 354.195312 373.699219 355.417969 373.058594 356.609375 C 372.421875 357.800781 371.726562 358.960938 370.976562 360.085938 C 370.226562 361.207031 369.421875 362.292969 368.5625 363.339844 C 367.707031 364.382812 366.796875 365.382812 365.84375 366.339844 C 364.886719 367.296875 363.886719 368.203125 362.839844 369.0625 C 361.796875 369.917969 360.710938 370.722656 359.585938 371.476562 C 358.460938 372.226562 357.304688 372.921875 356.109375 373.558594 C 354.917969 374.195312 353.699219 374.773438 352.449219 375.289062 C 351.199219 375.808594 349.925781 376.261719 348.632812 376.65625 C 347.339844 377.046875 346.03125 377.375 344.703125 377.640625 C 343.378906 377.902344 342.042969 378.101562 340.695312 378.234375 C 339.351562 378.367188 338 378.433594 336.648438 378.433594 L 252.507812 378.433594 C 251.152344 378.433594 249.804688 378.367188 248.460938 378.234375 C 247.113281 378.101562 245.777344 377.902344 244.453125 377.640625 C 243.125 377.375 241.816406 377.046875 240.519531 376.65625 C 239.226562 376.261719 237.957031 375.808594 236.707031 375.289062 C 235.457031 374.773438 234.238281 374.195312 233.042969 373.558594 C 231.851562 372.921875 230.691406 372.226562 229.570312 371.476562 C 228.445312 370.722656 227.359375 369.917969 226.316406 369.0625 C 225.269531 368.203125 224.269531 367.296875 223.3125 366.339844 C 222.355469 365.382812 221.449219 364.382812 220.589844 363.339844 C 219.734375 362.292969 218.929688 361.207031 218.179688 360.085938 C 217.425781 358.960938 216.734375 357.800781 216.09375 356.609375 C 215.457031 355.417969 214.878906 354.195312 214.363281 352.945312 C 213.84375 351.699219 213.390625 350.425781 212.996094 349.132812 C 212.605469 347.835938 212.277344 346.527344 212.011719 345.203125 C 211.75 343.875 211.550781 342.539062 211.417969 341.195312 C 211.285156 339.847656 211.21875 338.5 211.21875 337.148438 L 211.21875 253.003906 C 211.21875 251.652344 211.285156 250.304688 211.417969 248.957031 C 211.550781 247.613281 211.75 246.277344 212.011719 244.949219 C 212.277344 243.625 212.605469 242.3125 212.996094 241.019531 C 213.390625 239.726562 213.84375 238.453125 214.363281 237.203125 C 214.878906 235.957031 215.457031 234.734375 216.09375 233.542969 C 216.734375 232.347656 217.425781 231.191406 218.179688 230.066406 C 218.929688 228.941406 219.734375 227.859375 220.589844 226.8125 C 221.449219 225.765625 222.355469 224.765625 223.3125 223.8125 C 224.269531 222.855469 225.269531 221.949219 226.316406 221.089844 C 227.359375 220.230469 228.445312 219.425781 229.570312 218.675781 C 230.691406 217.925781 231.851562 217.230469 233.042969 216.59375 C 234.238281 215.957031 235.457031 215.378906 236.707031 214.859375 C 237.957031 214.34375 239.226562 213.886719 240.519531 213.496094 C 241.816406 213.101562 243.125 212.773438 244.453125 212.511719 C 245.777344 212.246094 247.113281 212.050781 248.460938 211.917969 C 249.804688 211.785156 251.152344 211.71875 252.507812 211.71875 Z M 252.507812 211.71875 " fill-opacity="1" fill-rule="nonzero"/></g><g clip-path="url(#ae47f7a605)"><path fill="#4f40cf" d="M 463.65625 211.71875 L 547.800781 211.71875 C 549.152344 211.71875 550.5 211.785156 551.847656 211.917969 C 553.191406 212.050781 554.527344 212.246094 555.855469 212.511719 C 557.179688 212.773438 558.492188 213.101562 559.785156 213.496094 C 561.078125 213.886719 562.351562 214.34375 563.601562 214.859375 C 564.847656 215.378906 566.070312 215.957031 567.261719 216.59375 C 568.457031 217.230469 569.613281 217.925781 570.738281 218.675781 C 571.863281 219.425781 572.945312 220.230469 573.992188 221.089844 C 575.039062 221.949219 576.039062 222.855469 576.996094 223.8125 C 577.949219 224.765625 578.855469 225.765625 579.714844 226.8125 C 580.574219 227.859375 581.378906 228.941406 582.128906 230.066406 C 582.878906 231.191406 583.574219 232.347656 584.210938 233.542969 C 584.847656 234.734375 585.425781 235.957031 585.945312 237.203125 C 586.460938 238.453125 586.917969 239.726562 587.308594 241.019531 C 587.703125 242.3125 588.03125 243.625 588.292969 244.949219 C 588.558594 246.277344 588.753906 247.613281 588.886719 248.957031 C 589.019531 250.304688 589.085938 251.652344 589.085938 253.003906 L 589.085938 337.148438 C 589.085938 338.5 589.019531 339.847656 588.886719 341.195312 C 588.753906 342.539062 588.558594 343.875 588.292969 345.203125 C 588.03125 346.527344 587.703125 347.835938 587.308594 349.132812 C 586.917969 350.425781 586.460938 351.699219 585.945312 352.945312 C 585.425781 354.195312 584.847656 355.417969 584.210938 356.609375 C 583.574219 357.800781 582.878906 358.960938 582.128906 360.085938 C 581.378906 361.207031 580.574219 362.292969 579.714844 363.339844 C 578.855469 364.382812 577.949219 365.382812 576.996094 366.339844 C 576.039062 367.296875 575.039062 368.203125 573.992188 369.0625 C 572.945312 369.917969 571.863281 370.722656 570.738281 371.476562 C 569.613281 372.226562 568.457031 372.921875 567.261719 373.558594 C 566.070312 374.195312 564.847656 374.773438 563.601562 375.289062 C 562.351562 375.808594 561.078125 376.261719 559.785156 376.65625 C 558.492188 377.046875 557.179688 377.375 555.855469 377.640625 C 554.527344 377.902344 553.191406 378.101562 551.847656 378.234375 C 550.5 378.367188 549.152344 378.433594 547.800781 378.433594 L 463.65625 378.433594 C 462.304688 378.433594 460.957031 378.367188 459.609375 378.234375 C 458.265625 378.101562 456.929688 377.902344 455.601562 377.640625 C 454.277344 377.375 452.96875 377.046875 451.671875 376.65625 C 450.378906 376.261719 449.109375 375.808594 447.859375 375.289062 C 446.609375 374.773438 445.386719 374.195312 444.195312 373.558594 C 443.003906 372.921875 441.84375 372.226562 440.71875 371.476562 C 439.597656 370.722656 438.511719 369.917969 437.464844 369.0625 C 436.421875 368.203125 435.421875 367.296875 434.464844 366.339844 C 433.507812 365.382812 432.601562 364.382812 431.742188 363.339844 C 430.886719 362.292969 430.082031 361.207031 429.328125 360.085938 C 428.578125 358.960938 427.882812 357.800781 427.246094 356.609375 C 426.609375 355.417969 426.03125 354.195312 425.515625 352.945312 C 424.996094 351.699219 424.542969 350.425781 424.148438 349.132812 C 423.757812 347.835938 423.429688 346.527344 423.164062 345.203125 C 422.902344 343.875 422.703125 342.539062 422.570312 341.195312 C 422.4375 339.847656 422.371094 338.5 422.371094 337.148438 L 422.371094 253.003906 C 422.371094 251.652344 422.4375 250.304688 422.570312 248.957031 C 422.703125 247.613281 422.902344 246.277344 423.164062 244.949219 C 423.429688 243.625 423.757812 242.3125 424.148438 241.019531 C 424.542969 239.726562 424.996094 238.453125 425.515625 237.203125 C 426.03125 235.957031 426.609375 234.734375 427.246094 233.542969 C 427.882812 232.347656 428.578125 231.191406 429.328125 230.066406 C 430.082031 228.941406 430.886719 227.859375 431.742188 226.8125 C 432.601562 225.765625 433.507812 224.765625 434.464844 223.8125 C 435.421875 222.855469 436.421875 221.949219 437.464844 221.089844 C 438.511719 220.230469 439.597656 219.425781 440.71875 218.675781 C 441.84375 217.925781 443.003906 217.230469 444.195312 216.59375 C 445.386719 215.957031 446.609375 215.378906 447.859375 214.859375 C 449.109375 214.34375 450.378906 213.886719 451.671875 213.496094 C 452.96875 213.101562 454.277344 212.773438 455.601562 212.511719 C 456.929688 212.246094 458.265625 212.050781 459.609375 211.917969 C 460.957031 211.785156 462.304688 211.71875 463.65625 211.71875 Z M 463.65625 211.71875 " fill-opacity="1" fill-rule="nonzero"/></g><g clip-path="url(#cb7bfe0a11)"><path fill="#4f40cf" d="M 41.355469 422.980469 L 125.496094 422.980469 C 126.847656 422.980469 128.199219 423.046875 129.542969 423.179688 C 130.890625 423.3125 132.226562 423.507812 133.550781 423.773438 C 134.878906 424.039062 136.1875 424.367188 137.480469 424.757812 C 138.777344 425.152344 140.046875 425.605469 141.296875 426.121094 C 142.546875 426.640625 143.765625 427.21875 144.960938 427.855469 C 146.152344 428.492188 147.308594 429.1875 148.433594 429.9375 C 149.558594 430.6875 150.644531 431.492188 151.6875 432.351562 C 152.734375 433.210938 153.734375 434.117188 154.691406 435.074219 C 155.648438 436.027344 156.554688 437.03125 157.410156 438.074219 C 158.269531 439.121094 159.074219 440.203125 159.824219 441.328125 C 160.578125 442.453125 161.269531 443.613281 161.90625 444.804688 C 162.546875 445.996094 163.121094 447.21875 163.640625 448.464844 C 164.15625 449.714844 164.613281 450.988281 165.003906 452.28125 C 165.398438 453.574219 165.726562 454.886719 165.988281 456.210938 C 166.253906 457.539062 166.453125 458.875 166.585938 460.21875 C 166.71875 461.566406 166.78125 462.914062 166.78125 464.265625 L 166.78125 548.410156 C 166.78125 549.761719 166.71875 551.109375 166.585938 552.457031 C 166.453125 553.800781 166.253906 555.136719 165.988281 556.464844 C 165.726562 557.789062 165.398438 559.101562 165.003906 560.394531 C 164.613281 561.6875 164.15625 562.960938 163.640625 564.207031 C 163.121094 565.457031 162.546875 566.679688 161.90625 567.871094 C 161.269531 569.0625 160.578125 570.222656 159.824219 571.347656 C 159.074219 572.46875 158.269531 573.554688 157.410156 574.601562 C 156.554688 575.644531 155.648438 576.644531 154.691406 577.601562 C 153.734375 578.558594 152.734375 579.464844 151.6875 580.324219 C 150.644531 581.179688 149.558594 581.984375 148.433594 582.738281 C 147.308594 583.488281 146.152344 584.183594 144.960938 584.820312 C 143.765625 585.457031 142.546875 586.035156 141.296875 586.550781 C 140.046875 587.070312 138.777344 587.523438 137.480469 587.917969 C 136.1875 588.308594 134.878906 588.636719 133.550781 588.902344 C 132.226562 589.164062 130.890625 589.363281 129.542969 589.496094 C 128.199219 589.628906 126.847656 589.695312 125.496094 589.695312 L 41.355469 589.695312 C 40.003906 589.695312 38.652344 589.628906 37.308594 589.496094 C 35.960938 589.363281 34.625 589.164062 33.300781 588.902344 C 31.972656 588.636719 30.664062 588.308594 29.371094 587.917969 C 28.074219 587.523438 26.804688 587.070312 25.554688 586.550781 C 24.304688 586.035156 23.085938 585.457031 21.890625 584.820312 C 20.699219 584.183594 19.542969 583.488281 18.417969 582.738281 C 17.292969 581.984375 16.207031 581.179688 15.164062 580.324219 C 14.117188 579.464844 13.117188 578.558594 12.160156 577.601562 C 11.203125 576.644531 10.296875 575.644531 9.441406 574.601562 C 8.582031 573.554688 7.777344 572.46875 7.027344 571.347656 C 6.273438 570.222656 5.582031 569.0625 4.941406 567.871094 C 4.304688 566.679688 3.726562 565.457031 3.210938 564.207031 C 2.695312 562.960938 2.238281 561.6875 1.847656 560.394531 C 1.453125 559.101562 1.125 557.789062 0.863281 556.464844 C 0.597656 555.136719 0.398438 553.800781 0.265625 552.457031 C 0.132812 551.109375 0.0664062 549.761719 0.0664062 548.410156 L 0.0664062 464.265625 C 0.0664062 462.914062 0.132812 461.566406 0.265625 460.21875 C 0.398438 458.875 0.597656 457.539062 0.863281 456.210938 C 1.125 454.886719 1.453125 453.574219 1.847656 452.28125 C 2.238281 450.988281 2.695312 449.714844 3.210938 448.464844 C 3.726562 447.21875 4.304688 445.996094 4.941406 444.804688 C 5.582031 443.613281 6.273438 442.453125 7.027344 441.328125 C 7.777344 440.203125 8.582031 439.121094 9.441406 438.074219 C 10.296875 437.03125 11.203125 436.027344 12.160156 435.074219 C 13.117188 434.117188 14.117188 433.210938 15.164062 432.351562 C 16.207031 431.492188 17.292969 430.6875 18.417969 429.9375 C 19.542969 429.1875 20.699219 428.492188 21.890625 427.855469 C 23.085938 427.21875 24.304688 426.640625 25.554688 426.121094 C 26.804688 425.605469 28.074219 425.152344 29.371094 424.757812 C 30.664062 424.367188 31.972656 424.039062 33.300781 423.773438 C 34.625 423.507812 35.960938 423.3125 37.308594 423.179688 C 38.652344 423.046875 40.003906 422.980469 41.355469 422.980469 Z M 41.355469 422.980469 " fill-opacity="1" fill-rule="nonzero"/></g><g clip-path="url(#ca658f2db5)"><path fill="#4f40cf" d="M 252.507812 422.980469 L 336.648438 422.980469 C 338 422.980469 339.351562 423.046875 340.695312 423.179688 C 342.042969 423.3125 343.378906 423.507812 344.703125 423.773438 C 346.03125 424.039062 347.339844 424.367188 348.632812 424.757812 C 349.925781 425.152344 351.199219 425.605469 352.449219 426.121094 C 353.699219 426.640625 354.917969 427.21875 356.109375 427.855469 C 357.304688 428.492188 358.460938 429.1875 359.585938 429.9375 C 360.710938 430.6875 361.796875 431.492188 362.839844 432.351562 C 363.886719 433.210938 364.886719 434.117188 365.84375 435.074219 C 366.796875 436.027344 367.707031 437.03125 368.5625 438.074219 C 369.421875 439.121094 370.226562 440.203125 370.976562 441.328125 C 371.726562 442.453125 372.421875 443.613281 373.058594 444.804688 C 373.699219 445.996094 374.273438 447.21875 374.792969 448.464844 C 375.308594 449.714844 375.765625 450.988281 376.15625 452.28125 C 376.550781 453.574219 376.878906 454.886719 377.140625 456.210938 C 377.40625 457.539062 377.605469 458.875 377.734375 460.21875 C 377.867188 461.566406 377.933594 462.914062 377.933594 464.265625 L 377.933594 548.410156 C 377.933594 549.761719 377.867188 551.109375 377.734375 552.457031 C 377.605469 553.800781 377.40625 555.136719 377.140625 556.464844 C 376.878906 557.789062 376.550781 559.101562 376.15625 560.394531 C 375.765625 561.6875 375.308594 562.960938 374.792969 564.207031 C 374.273438 565.457031 373.699219 566.679688 373.058594 567.871094 C 372.421875 569.0625 371.726562 570.222656 370.976562 571.347656 C 370.226562 572.46875 369.421875 573.554688 368.5625 574.601562 C 367.707031 575.644531 366.796875 576.644531 365.84375 577.601562 C 364.886719 578.558594 363.886719 579.464844 362.839844 580.324219 C 361.796875 581.179688 360.710938 581.984375 359.585938 582.738281 C 358.460938 583.488281 357.304688 584.183594 356.109375 584.820312 C 354.917969 585.457031 353.699219 586.035156 352.449219 586.550781 C 351.199219 587.070312 349.925781 587.523438 348.632812 587.917969 C 347.339844 588.308594 346.03125 588.636719 344.703125 588.902344 C 343.378906 589.164062 342.042969 589.363281 340.695312 589.496094 C 339.351562 589.628906 338 589.695312 336.648438 589.695312 L 252.507812 589.695312 C 251.152344 589.695312 249.804688 589.628906 248.460938 589.496094 C 247.113281 589.363281 245.777344 589.164062 244.453125 588.902344 C 243.125 588.636719 241.816406 588.308594 240.519531 587.917969 C 239.226562 587.523438 237.957031 587.070312 236.707031 586.550781 C 235.457031 586.035156 234.238281 585.457031 233.042969 584.820312 C 231.851562 584.183594 230.691406 583.488281 229.570312 582.738281 C 228.445312 581.984375 227.359375 581.179688 226.316406 580.324219 C 225.269531 579.464844 224.269531 578.558594 223.3125 577.601562 C 222.355469 576.644531 221.449219 575.644531 220.589844 574.601562 C 219.734375 573.554688 218.929688 572.46875 218.179688 571.347656 C 217.425781 570.222656 216.734375 569.0625 216.09375 567.871094 C 215.457031 566.679688 214.878906 565.457031 214.363281 564.207031 C 213.84375 562.960938 213.390625 561.6875 212.996094 560.394531 C 212.605469 559.101562 212.277344 557.789062 212.011719 556.464844 C 211.75 555.136719 211.550781 553.800781 211.417969 552.457031 C 211.285156 551.109375 211.21875 549.761719 211.21875 548.410156 L 211.21875 464.265625 C 211.21875 462.914062 211.285156 461.566406 211.417969 460.21875 C 211.550781 458.875 211.75 457.539062 212.011719 456.210938 C 212.277344 454.886719 212.605469 453.574219 212.996094 452.28125 C 213.390625 450.988281 213.84375 449.714844 214.363281 448.464844 C 214.878906 447.21875 215.457031 445.996094 216.09375 444.804688 C 216.734375 443.613281 217.425781 442.453125 218.179688 441.328125 C 218.929688 440.203125 219.734375 439.121094 220.589844 438.074219 C 221.449219 437.03125 222.355469 436.027344 223.3125 435.074219 C 224.269531 434.117188 225.269531 433.210938 226.316406 432.351562 C 227.359375 431.492188 228.445312 430.6875 229.570312 429.9375 C 230.691406 429.1875 231.851562 428.492188 233.042969 427.855469 C 234.238281 427.21875 235.457031 426.640625 236.707031 426.121094 C 237.957031 425.605469 239.226562 425.152344 240.519531 424.757812 C 241.816406 424.367188 243.125 424.039062 244.453125 423.773438 C 245.777344 423.507812 247.113281 423.3125 248.460938 423.179688 C 249.804688 423.046875 251.152344 422.980469 252.507812 422.980469 Z M 252.507812 422.980469 " fill-opacity="1" fill-rule="nonzero"/></g><g clip-path="url(#8023608703)"><path fill="#4f40cf" d="M 463.65625 422.980469 L 547.800781 422.980469 C 549.152344 422.980469 550.5 423.046875 551.847656 423.179688 C 553.191406 423.3125 554.527344 423.507812 555.855469 423.773438 C 557.179688 424.039062 558.492188 424.367188 559.785156 424.757812 C 561.078125 425.152344 562.351562 425.605469 563.601562 426.121094 C 564.847656 426.640625 566.070312 427.21875 567.261719 427.855469 C 568.457031 428.492188 569.613281 429.1875 570.738281 429.9375 C 571.863281 430.6875 572.945312 431.492188 573.992188 432.351562 C 575.039062 433.210938 576.039062 434.117188 576.996094 435.074219 C 577.949219 436.027344 578.855469 437.03125 579.714844 438.074219 C 580.574219 439.121094 581.378906 440.203125 582.128906 441.328125 C 582.878906 442.453125 583.574219 443.613281 584.210938 444.804688 C 584.847656 445.996094 585.425781 447.21875 585.945312 448.464844 C 586.460938 449.714844 586.917969 450.988281 587.308594 452.28125 C 587.703125 453.574219 588.03125 454.886719 588.292969 456.210938 C 588.558594 457.539062 588.753906 458.875 588.886719 460.21875 C 589.019531 461.566406 589.085938 462.914062 589.085938 464.265625 L 589.085938 548.410156 C 589.085938 549.761719 589.019531 551.109375 588.886719 552.457031 C 588.753906 553.800781 588.558594 555.136719 588.292969 556.464844 C 588.03125 557.789062 587.703125 559.101562 587.308594 560.394531 C 586.917969 561.6875 586.460938 562.960938 585.945312 564.207031 C 585.425781 565.457031 584.847656 566.679688 584.210938 567.871094 C 583.574219 569.0625 582.878906 570.222656 582.128906 571.347656 C 581.378906 572.46875 580.574219 573.554688 579.714844 574.601562 C 578.855469 575.644531 577.949219 576.644531 576.996094 577.601562 C 576.039062 578.558594 575.039062 579.464844 573.992188 580.324219 C 572.945312 581.179688 571.863281 581.984375 570.738281 582.738281 C 569.613281 583.488281 568.457031 584.183594 567.261719 584.820312 C 566.070312 585.457031 564.847656 586.035156 563.601562 586.550781 C 562.351562 587.070312 561.078125 587.523438 559.785156 587.917969 C 558.492188 588.308594 557.179688 588.636719 555.855469 588.902344 C 554.527344 589.164062 553.191406 589.363281 551.847656 589.496094 C 550.5 589.628906 549.152344 589.695312 547.800781 589.695312 L 463.65625 589.695312 C 462.304688 589.695312 460.957031 589.628906 459.609375 589.496094 C 458.265625 589.363281 456.929688 589.164062 455.601562 588.902344 C 454.277344 588.636719 452.96875 588.308594 451.671875 587.917969 C 450.378906 587.523438 449.109375 587.070312 447.859375 586.550781 C 446.609375 586.035156 445.386719 585.457031 444.195312 584.820312 C 443.003906 584.183594 441.84375 583.488281 440.71875 582.738281 C 439.597656 581.984375 438.511719 581.179688 437.464844 580.324219 C 436.421875 579.464844 435.421875 578.558594 434.464844 577.601562 C 433.507812 576.644531 432.601562 575.644531 431.742188 574.601562 C 430.886719 573.554688 430.082031 572.46875 429.328125 571.347656 C 428.578125 570.222656 427.882812 569.0625 427.246094 567.871094 C 426.609375 566.679688 426.03125 565.457031 425.515625 564.207031 C 424.996094 562.960938 424.542969 561.6875 424.148438 560.394531 C 423.757812 559.101562 423.429688 557.789062 423.164062 556.464844 C 422.902344 555.136719 422.703125 553.800781 422.570312 552.457031 C 422.4375 551.109375 422.371094 549.761719 422.371094 548.410156 L 422.371094 464.265625 C 422.371094 462.914062 422.4375 461.566406 422.570312 460.21875 C 422.703125 458.875 422.902344 457.539062 423.164062 456.210938 C 423.429688 454.886719 423.757812 453.574219 424.148438 452.28125 C 424.542969 450.988281 424.996094 449.714844 425.515625 448.464844 C 426.03125 447.21875 426.609375 445.996094 427.246094 444.804688 C 427.882812 443.613281 428.578125 442.453125 429.328125 441.328125 C 430.082031 440.203125 430.886719 439.121094 431.742188 438.074219 C 432.601562 437.03125 433.507812 436.027344 434.464844 435.074219 C 435.421875 434.117188 436.421875 433.210938 437.464844 432.351562 C 438.511719 431.492188 439.597656 430.6875 440.71875 429.9375 C 441.84375 429.1875 443.003906 428.492188 444.195312 427.855469 C 445.386719 427.21875 446.609375 426.640625 447.859375 426.121094 C 449.109375 425.605469 450.378906 425.152344 451.671875 424.757812 C 452.96875 424.367188 454.277344 424.039062 455.601562 423.773438 C 456.929688 423.507812 458.265625 423.3125 459.609375 423.179688 C 460.957031 423.046875 462.304688 422.980469 463.65625 422.980469 Z M 463.65625 422.980469 " fill-opacity="1" fill-rule="nonzero"/></g><g clip-path="url(#7fe79f5bbc)"><g clip-path="url(#64903ae0a3)"><g clip-path="url(#85c10ef719)"><path fill="#4f40cf" d="M 64.054688 67.117188 L 65.394531 65.839844 L 66.738281 64.566406 C 134.328125 135.769531 201.914062 206.976562 269.5 278.179688 C 268.601562 279.03125 267.707031 279.878906 266.8125 280.730469 C 199.226562 209.523438 131.640625 138.320312 64.054688 67.117188 " fill-opacity="1" fill-rule="nonzero"/></g></g></g><g clip-path="url(#72be0280c9)"><path fill="#4f40cf" d="M 290.898438 19.996094 L 294.601562 19.996094 C 294.601562 118.167969 294.601562 216.34375 294.601562 314.515625 C 293.367188 314.515625 292.132812 314.515625 290.898438 314.515625 C 290.898438 216.34375 290.898438 118.167969 290.898438 19.996094 " fill-opacity="1" fill-rule="nonzero"/></g><g clip-path="url(#11264b7f2c)"><g clip-path="url(#bb92b64a19)"><g clip-path="url(#f9463b4f44)"><path fill="#4f40cf" d="M 520.4375 60.949219 L 523.171875 63.449219 C 456.902344 135.882812 390.632812 208.316406 324.363281 280.746094 C 323.453125 279.914062 322.542969 279.082031 321.628906 278.246094 C 387.898438 205.8125 454.167969 133.382812 520.4375 60.949219 " fill-opacity="1" fill-rule="nonzero"/></g></g></g><g clip-path="url(#1cdec80ac7)"><path fill="#4f40cf" d="M 294.582031 280.714844 L 298.285156 280.714844 C 298.285156 378.886719 298.285156 477.0625 298.285156 575.234375 C 297.050781 575.234375 295.816406 575.234375 294.582031 575.234375 C 294.582031 477.0625 294.582031 378.886719 294.582031 280.714844 " fill-opacity="1" fill-rule="nonzero"/></g><g clip-path="url(#84d7965b02)"><g clip-path="url(#bae51eb421)"><g clip-path="url(#f3ba6fc4ad)"><path fill="#4f40cf" d="M 288.203125 295.054688 L 290.9375 297.554688 C 224.667969 369.988281 158.402344 442.417969 92.132812 514.851562 C 91.21875 514.019531 90.308594 513.183594 89.398438 512.351562 C 155.667969 439.917969 221.9375 367.484375 288.203125 295.054688 " fill-opacity="1" fill-rule="nonzero"/></g></g></g><g clip-path="url(#f6ec8f1ee7)"><g clip-path="url(#af0d2a56ce)"><g clip-path="url(#52140c271b)"><path fill="#4f40cf" d="M 296.398438 297.585938 L 297.742188 296.3125 L 299.085938 295.035156 C 366.671875 366.242188 434.257812 437.445312 501.84375 508.652344 C 500.949219 509.5 500.050781 510.351562 499.15625 511.203125 C 431.570312 439.996094 363.984375 368.792969 296.398438 297.585938 " fill-opacity="1" fill-rule="nonzero"/></g></g></g><g clip-path="url(#e95de7adb9)"><path fill="#4f40cf" d="M 321.648438 286.074219 L 321.648438 289.777344 C 223.472656 289.777344 125.300781 289.777344 27.125 289.777344 C 27.125 288.542969 27.125 287.308594 27.125 286.074219 C 125.300781 286.074219 223.472656 286.074219 321.648438 286.074219 " fill-opacity="1" fill-rule="nonzero"/></g><g clip-path="url(#26e1e68936)"><path fill="#4f40cf" d="M 579.996094 287.914062 L 579.996094 291.617188 C 481.824219 291.617188 383.648438 291.617188 285.476562 291.617188 C 285.476562 290.382812 285.476562 289.148438 285.476562 287.914062 C 383.648438 287.914062 481.824219 287.914062 579.996094 287.914062 " fill-opacity="1" fill-rule="nonzero"/></g><g clip-path="url(#4c9b9a4ed6)"><g transform="matrix(1, 0, 0, 1, 625, 79)"><g clip-path="url(#0980e74149)"><g fill="#000000" fill-opacity="1"><g transform="translate(1.129506, 172.931454)"><g><path d="M 66.640625 1.75 C 55.742188 1.75 46.125 -1.03125 37.78125 -6.59375 C 29.445312 -12.164062 22.914062 -19.953125 18.1875 -29.953125 C 13.46875 -39.953125 11.109375 -51.660156 11.109375 -65.078125 C 11.109375 -78.546875 13.46875 -90.289062 18.1875 -100.3125 C 22.914062 -110.34375 29.445312 -118.140625 37.78125 -123.703125 C 46.125 -129.273438 55.742188 -132.0625 66.640625 -132.0625 C 73.929688 -132.0625 80.503906 -130.863281 86.359375 -128.46875 C 92.222656 -126.082031 97.3125 -122.847656 101.625 -118.765625 C 105.945312 -114.691406 109.429688 -110.117188 112.078125 -105.046875 C 114.734375 -99.972656 116.53125 -94.753906 117.46875 -89.390625 L 109.234375 -89.390625 C 108.304688 -93.878906 106.691406 -98.207031 104.390625 -102.375 C 102.085938 -106.539062 99.128906 -110.269531 95.515625 -113.5625 C 91.898438 -116.863281 87.671875 -119.472656 82.828125 -121.390625 C 77.984375 -123.316406 72.585938 -124.28125 66.640625 -124.28125 C 58.015625 -124.28125 50.097656 -121.976562 42.890625 -117.375 C 35.691406 -112.769531 29.9375 -106.0625 25.625 -97.25 C 21.3125 -88.445312 19.15625 -77.722656 19.15625 -65.078125 C 19.15625 -52.359375 21.328125 -41.597656 25.671875 -32.796875 C 30.015625 -23.992188 35.769531 -17.332031 42.9375 -12.8125 C 50.113281 -8.289062 58.015625 -6.03125 66.640625 -6.03125 C 72.585938 -6.03125 77.984375 -6.992188 82.828125 -8.921875 C 87.671875 -10.847656 91.898438 -13.472656 95.515625 -16.796875 C 99.128906 -20.117188 102.085938 -23.847656 104.390625 -27.984375 C 106.691406 -32.128906 108.304688 -36.445312 109.234375 -40.9375 L 117.46875 -40.9375 C 116.53125 -35.625 114.734375 -30.445312 112.078125 -25.40625 C 109.429688 -20.363281 105.960938 -15.785156 101.671875 -11.671875 C 97.390625 -7.566406 92.300781 -4.300781 86.40625 -1.875 C 80.519531 0.539062 73.929688 1.75 66.640625 1.75 Z M 66.640625 1.75 "/></g></g></g><g fill="#000000" fill-opacity="1"><g transform="translate(129.26041, 172.931454)"><g><path d="M 51.34375 2.015625 C 43.238281 2.015625 36.050781 -0.140625 29.78125 -4.453125 C 23.507812 -8.773438 18.566406 -14.695312 14.953125 -22.21875 C 11.335938 -29.738281 9.53125 -38.335938 9.53125 -48.015625 C 9.53125 -57.691406 11.335938 -66.289062 14.953125 -73.8125 C 18.566406 -81.34375 23.507812 -87.25 29.78125 -91.53125 C 36.050781 -95.8125 43.238281 -97.953125 51.34375 -97.953125 C 59.445312 -97.953125 66.628906 -95.8125 72.890625 -91.53125 C 79.160156 -87.25 84.085938 -81.332031 87.671875 -73.78125 C 91.265625 -66.226562 93.0625 -57.640625 93.0625 -48.015625 C 93.0625 -38.335938 91.265625 -29.738281 87.671875 -22.21875 C 84.085938 -14.695312 79.160156 -8.773438 72.890625 -4.453125 C 66.628906 -0.140625 59.445312 2.015625 51.34375 2.015625 Z M 51.34375 -5.328125 C 58.164062 -5.328125 64.097656 -7.207031 69.140625 -10.96875 C 74.179688 -14.738281 78.101562 -19.84375 80.90625 -26.28125 C 83.707031 -32.726562 85.109375 -39.972656 85.109375 -48.015625 C 85.109375 -56.003906 83.707031 -63.21875 80.90625 -69.65625 C 78.101562 -76.101562 74.164062 -81.207031 69.09375 -84.96875 C 64.019531 -88.726562 58.101562 -90.609375 51.34375 -90.609375 C 44.570312 -90.609375 38.664062 -88.726562 33.625 -84.96875 C 28.582031 -81.207031 24.632812 -76.117188 21.78125 -69.703125 C 18.925781 -63.296875 17.5 -56.066406 17.5 -48.015625 C 17.5 -39.972656 18.910156 -32.726562 21.734375 -26.28125 C 24.566406 -19.84375 28.515625 -14.738281 33.578125 -10.96875 C 38.648438 -7.207031 44.570312 -5.328125 51.34375 -5.328125 Z M 51.34375 -5.328125 "/></g></g></g><g fill="#000000" fill-opacity="1"><g transform="translate(231.852594, 172.931454)"><g><path d="M 15.125 0 L 15.125 -96.5625 L 22.828125 -96.5625 L 22.828125 -74.4375 L 21.515625 -74.4375 C 22.859375 -79.851562 25.0625 -84.296875 28.125 -87.765625 C 31.1875 -91.234375 34.753906 -93.828125 38.828125 -95.546875 C 42.910156 -97.273438 47.082031 -98.140625 51.34375 -98.140625 C 58.570312 -98.140625 64.632812 -95.921875 69.53125 -91.484375 C 74.425781 -87.054688 77.515625 -81.050781 78.796875 -73.46875 L 76.96875 -73.46875 C 78.132812 -78.601562 80.21875 -83.003906 83.21875 -86.671875 C 86.21875 -90.347656 89.875 -93.175781 94.1875 -95.15625 C 98.507812 -97.144531 103.234375 -98.140625 108.359375 -98.140625 C 114.367188 -98.140625 119.617188 -96.828125 124.109375 -94.203125 C 128.597656 -91.578125 132.109375 -87.753906 134.640625 -82.734375 C 137.179688 -77.722656 138.453125 -71.660156 138.453125 -64.546875 L 138.453125 0 L 130.578125 0 L 130.578125 -64.375 C 130.578125 -73.0625 128.375 -79.617188 123.96875 -84.046875 C 119.570312 -88.484375 113.875 -90.703125 106.875 -90.703125 C 101.925781 -90.703125 97.46875 -89.625 93.5 -87.46875 C 89.53125 -85.3125 86.410156 -82.234375 84.140625 -78.234375 C 81.867188 -74.242188 80.734375 -69.445312 80.734375 -63.84375 L 80.734375 0 L 72.859375 0 L 72.859375 -64.890625 C 72.859375 -73.003906 70.726562 -79.332031 66.46875 -83.875 C 62.21875 -88.425781 56.617188 -90.703125 49.671875 -90.703125 C 44.722656 -90.703125 40.234375 -89.550781 36.203125 -87.25 C 32.179688 -84.945312 28.972656 -81.738281 26.578125 -77.625 C 24.191406 -73.507812 23 -68.65625 23 -63.0625 L 23 0 Z M 15.125 0 "/></g></g></g><g fill="#000000" fill-opacity="1"><g transform="translate(385.434756, 172.931454)"><g><path d="M 15.125 36.5625 L 15.125 -96.5625 L 22.828125 -96.5625 L 22.828125 -74.875 L 23.53125 -74.875 C 25.039062 -79.125 27.253906 -83 30.171875 -86.5 C 33.085938 -90 36.671875 -92.78125 40.921875 -94.84375 C 45.179688 -96.914062 50.082031 -97.953125 55.625 -97.953125 C 63.382812 -97.953125 70.207031 -95.835938 76.09375 -91.609375 C 81.976562 -87.390625 86.566406 -81.519531 89.859375 -74 C 93.160156 -66.476562 94.8125 -57.847656 94.8125 -48.109375 C 94.8125 -38.304688 93.175781 -29.628906 89.90625 -22.078125 C 86.644531 -14.535156 82.066406 -8.632812 76.171875 -4.375 C 70.285156 -0.113281 63.4375 2.015625 55.625 2.015625 C 50.144531 2.015625 45.273438 0.964844 41.015625 -1.125 C 36.765625 -3.226562 33.179688 -6.046875 30.265625 -9.578125 C 27.347656 -13.109375 25.128906 -17 23.609375 -21.25 L 23 -21.25 L 23 36.5625 Z M 54.84375 -5.328125 C 61.425781 -5.328125 67.109375 -7.175781 71.890625 -10.875 C 76.671875 -14.582031 80.359375 -19.65625 82.953125 -26.09375 C 85.546875 -32.539062 86.84375 -39.878906 86.84375 -48.109375 C 86.84375 -56.328125 85.546875 -63.640625 82.953125 -70.046875 C 80.359375 -76.460938 76.671875 -81.492188 71.890625 -85.140625 C 67.109375 -88.785156 61.425781 -90.609375 54.84375 -90.609375 C 48.25 -90.609375 42.5625 -88.800781 37.78125 -85.1875 C 33 -81.570312 29.3125 -76.554688 26.71875 -70.140625 C 24.125 -63.734375 22.828125 -56.390625 22.828125 -48.109375 C 22.828125 -39.828125 24.109375 -32.460938 26.671875 -26.015625 C 29.242188 -19.578125 32.929688 -14.519531 37.734375 -10.84375 C 42.546875 -7.164062 48.25 -5.328125 54.84375 -5.328125 Z M 54.84375 -5.328125 "/></g></g></g><g fill="#000000" fill-opacity="1"><g transform="translate(489.863629, 172.931454)"><g><path d="M 23 -130.328125 L 23 0 L 15.125 0 L 15.125 -130.328125 Z M 23 -130.328125 "/></g></g></g><g fill="#000000" fill-opacity="1"><g transform="translate(527.996785, 172.931454)"><g><path d="M 52.65625 2.015625 C 43.96875 2.015625 36.382812 -0.140625 29.90625 -4.453125 C 23.4375 -8.773438 18.421875 -14.695312 14.859375 -22.21875 C 11.304688 -29.738281 9.53125 -38.3125 9.53125 -47.9375 C 9.53125 -57.550781 11.304688 -66.132812 14.859375 -73.6875 C 18.421875 -81.238281 23.335938 -87.171875 29.609375 -91.484375 C 35.878906 -95.796875 43.066406 -97.953125 51.171875 -97.953125 C 56.828125 -97.953125 62.117188 -96.84375 67.046875 -94.625 C 71.972656 -92.414062 76.300781 -89.222656 80.03125 -85.046875 C 83.757812 -80.878906 86.660156 -75.851562 88.734375 -69.96875 C 90.804688 -64.082031 91.84375 -57.4375 91.84375 -50.03125 L 91.84375 -46.53125 L 14.34375 -46.53125 L 14.34375 -53.609375 L 87.546875 -53.609375 L 84.046875 -50.984375 C 84.046875 -58.515625 82.660156 -65.28125 79.890625 -71.28125 C 77.128906 -77.289062 73.285156 -82.03125 68.359375 -85.5 C 63.429688 -88.96875 57.703125 -90.703125 51.171875 -90.703125 C 44.691406 -90.703125 38.914062 -88.921875 33.84375 -85.359375 C 28.769531 -81.804688 24.773438 -77 21.859375 -70.9375 C 18.953125 -64.875 17.5 -58.050781 17.5 -50.46875 L 17.5 -47.40625 C 17.5 -39.351562 18.910156 -32.148438 21.734375 -25.796875 C 24.566406 -19.441406 28.617188 -14.441406 33.890625 -10.796875 C 39.171875 -7.148438 45.453125 -5.328125 52.734375 -5.328125 C 57.984375 -5.328125 62.53125 -6.21875 66.375 -8 C 70.226562 -9.78125 73.4375 -12.054688 76 -14.828125 C 78.570312 -17.597656 80.441406 -20.410156 81.609375 -23.265625 L 89.03125 -20.984375 C 87.570312 -17.140625 85.210938 -13.46875 81.953125 -9.96875 C 78.691406 -6.46875 74.597656 -3.59375 69.671875 -1.34375 C 64.742188 0.894531 59.070312 2.015625 52.65625 2.015625 Z M 52.65625 2.015625 "/></g></g></g><g fill="#000000" fill-opacity="1"><g transform="translate(628.927204, 172.931454)"><g><path d="M 43.5625 -96.5625 L 43.5625 -89.46875 L 0.96875 -89.46875 L 0.96875 -96.5625 Z M 15.5625 -120.265625 L 23.4375 -120.265625 L 23.4375 -20.46875 C 23.4375 -15.394531 24.644531 -11.660156 27.0625 -9.265625 C 29.488281 -6.878906 33.035156 -6.003906 37.703125 -6.640625 C 38.453125 -6.703125 39.304688 -6.804688 40.265625 -6.953125 C 41.234375 -7.097656 42.125 -7.226562 42.9375 -7.34375 L 44.25 -0.34375 C 43.320312 -0.113281 42.289062 0.0703125 41.15625 0.21875 C 40.019531 0.363281 38.894531 0.46875 37.78125 0.53125 C 30.78125 1.34375 25.328125 -0.144531 21.421875 -3.9375 C 17.515625 -7.726562 15.5625 -13.09375 15.5625 -20.03125 Z M 15.5625 -120.265625 "/></g></g></g><g fill="#000000" fill-opacity="1"><g transform="translate(675.369134, 172.931454)"><g><path d="M 52.65625 2.015625 C 43.96875 2.015625 36.382812 -0.140625 29.90625 -4.453125 C 23.4375 -8.773438 18.421875 -14.695312 14.859375 -22.21875 C 11.304688 -29.738281 9.53125 -38.3125 9.53125 -47.9375 C 9.53125 -57.550781 11.304688 -66.132812 14.859375 -73.6875 C 18.421875 -81.238281 23.335938 -87.171875 29.609375 -91.484375 C 35.878906 -95.796875 43.066406 -97.953125 51.171875 -97.953125 C 56.828125 -97.953125 62.117188 -96.84375 67.046875 -94.625 C 71.972656 -92.414062 76.300781 -89.222656 80.03125 -85.046875 C 83.757812 -80.878906 86.660156 -75.851562 88.734375 -69.96875 C 90.804688 -64.082031 91.84375 -57.4375 91.84375 -50.03125 L 91.84375 -46.53125 L 14.34375 -46.53125 L 14.34375 -53.609375 L 87.546875 -53.609375 L 84.046875 -50.984375 C 84.046875 -58.515625 82.660156 -65.28125 79.890625 -71.28125 C 77.128906 -77.289062 73.285156 -82.03125 68.359375 -85.5 C 63.429688 -88.96875 57.703125 -90.703125 51.171875 -90.703125 C 44.691406 -90.703125 38.914062 -88.921875 33.84375 -85.359375 C 28.769531 -81.804688 24.773438 -77 21.859375 -70.9375 C 18.953125 -64.875 17.5 -58.050781 17.5 -50.46875 L 17.5 -47.40625 C 17.5 -39.351562 18.910156 -32.148438 21.734375 -25.796875 C 24.566406 -19.441406 28.617188 -14.441406 33.890625 -10.796875 C 39.171875 -7.148438 45.453125 -5.328125 52.734375 -5.328125 C 57.984375 -5.328125 62.53125 -6.21875 66.375 -8 C 70.226562 -9.78125 73.4375 -12.054688 76 -14.828125 C 78.570312 -17.597656 80.441406 -20.410156 81.609375 -23.265625 L 89.03125 -20.984375 C 87.570312 -17.140625 85.210938 -13.46875 81.953125 -9.96875 C 78.691406 -6.46875 74.597656 -3.59375 69.671875 -1.34375 C 64.742188 0.894531 59.070312 2.015625 52.65625 2.015625 Z M 52.65625 2.015625 "/></g></g></g></g></g></g><g transform="matrix(1, 0, 0, 1, 625, 306)"><g clip-path="url(#1715cda0a3)"><g fill="#000000" fill-opacity="1"><g transform="translate(1.143758, 172.886298)"><g><path d="M 68.484375 1.84375 C 56.703125 1.84375 46.144531 -0.765625 36.8125 -5.984375 C 27.488281 -11.203125 20.128906 -18.796875 14.734375 -28.765625 C 9.335938 -38.742188 6.640625 -50.847656 6.640625 -65.078125 C 6.640625 -79.421875 9.363281 -91.578125 14.8125 -101.546875 C 20.269531 -111.515625 27.660156 -119.109375 36.984375 -124.328125 C 46.316406 -129.546875 56.816406 -132.15625 68.484375 -132.15625 C 76.234375 -132.15625 83.429688 -131.0625 90.078125 -128.875 C 96.734375 -126.6875 102.597656 -123.519531 107.671875 -119.375 C 112.742188 -115.238281 116.878906 -110.195312 120.078125 -104.25 C 123.285156 -98.300781 125.359375 -91.539062 126.296875 -83.96875 L 94.984375 -83.96875 C 94.460938 -87.226562 93.472656 -90.15625 92.015625 -92.75 C 90.554688 -95.34375 88.71875 -97.539062 86.5 -99.34375 C 84.28125 -101.15625 81.710938 -102.539062 78.796875 -103.5 C 75.890625 -104.46875 72.6875 -104.953125 69.1875 -104.953125 C 62.769531 -104.953125 57.242188 -103.378906 52.609375 -100.234375 C 47.972656 -97.085938 44.414062 -92.539062 41.9375 -86.59375 C 39.457031 -80.644531 38.21875 -73.472656 38.21875 -65.078125 C 38.21875 -56.503906 39.472656 -49.253906 41.984375 -43.328125 C 44.492188 -37.410156 48.050781 -32.9375 52.65625 -29.90625 C 57.257812 -26.875 62.738281 -25.359375 69.09375 -25.359375 C 72.59375 -25.359375 75.785156 -25.835938 78.671875 -26.796875 C 81.554688 -27.765625 84.132812 -29.148438 86.40625 -30.953125 C 88.6875 -32.765625 90.554688 -34.96875 92.015625 -37.5625 C 93.472656 -40.15625 94.492188 -43.054688 95.078125 -46.265625 L 126.390625 -46.265625 C 125.742188 -40.085938 123.976562 -34.140625 121.09375 -28.421875 C 118.207031 -22.710938 114.300781 -17.566406 109.375 -12.984375 C 104.445312 -8.410156 98.554688 -4.796875 91.703125 -2.140625 C 84.847656 0.511719 77.109375 1.84375 68.484375 1.84375 Z M 68.484375 1.84375 "/></g></g></g><g fill="#000000" fill-opacity="1"><g transform="translate(133.64773, 172.886298)"><g><path d="M 54.921875 1.921875 C 44.898438 1.921875 36.210938 -0.160156 28.859375 -4.328125 C 21.515625 -8.492188 15.859375 -14.320312 11.890625 -21.8125 C 7.929688 -29.3125 5.953125 -38.046875 5.953125 -48.015625 C 5.953125 -57.984375 7.929688 -66.710938 11.890625 -74.203125 C 15.859375 -81.703125 21.515625 -87.535156 28.859375 -91.703125 C 36.210938 -95.867188 44.898438 -97.953125 54.921875 -97.953125 C 65.015625 -97.953125 73.71875 -95.867188 81.03125 -91.703125 C 88.351562 -87.535156 93.992188 -81.703125 97.953125 -74.203125 C 101.921875 -66.710938 103.90625 -57.984375 103.90625 -48.015625 C 103.90625 -38.046875 101.921875 -29.3125 97.953125 -21.8125 C 93.992188 -14.320312 88.351562 -8.492188 81.03125 -4.328125 C 73.71875 -0.160156 65.015625 1.921875 54.921875 1.921875 Z M 54.921875 -21.609375 C 58.773438 -21.609375 62.039062 -22.695312 64.71875 -24.875 C 67.40625 -27.0625 69.445312 -30.140625 70.84375 -34.109375 C 72.238281 -38.078125 72.9375 -42.742188 72.9375 -48.109375 C 72.9375 -53.523438 72.238281 -58.203125 70.84375 -62.140625 C 69.445312 -66.078125 67.40625 -69.125 64.71875 -71.28125 C 62.039062 -73.4375 58.773438 -74.515625 54.921875 -74.515625 C 51.128906 -74.515625 47.878906 -73.4375 45.171875 -71.28125 C 42.460938 -69.125 40.40625 -66.078125 39 -62.140625 C 37.601562 -58.203125 36.90625 -53.523438 36.90625 -48.109375 C 36.90625 -42.742188 37.601562 -38.078125 39 -34.109375 C 40.40625 -30.140625 42.460938 -27.0625 45.171875 -24.875 C 47.878906 -22.695312 51.128906 -21.609375 54.921875 -21.609375 Z M 54.921875 -21.609375 "/></g></g></g><g fill="#000000" fill-opacity="1"><g transform="translate(245.16103, 172.886298)"><g><path d="M 37.265625 1.75 C 31.023438 1.75 25.484375 0.683594 20.640625 -1.4375 C 15.796875 -3.570312 12.003906 -6.738281 9.265625 -10.9375 C 6.523438 -15.132812 5.15625 -20.4375 5.15625 -26.84375 C 5.15625 -32.207031 6.101562 -36.726562 8 -40.40625 C 9.894531 -44.082031 12.519531 -47.070312 15.875 -49.375 C 19.226562 -51.675781 23.085938 -53.4375 27.453125 -54.65625 C 31.828125 -55.882812 36.492188 -56.703125 41.453125 -57.109375 C 46.992188 -57.578125 51.453125 -58.085938 54.828125 -58.640625 C 58.210938 -59.191406 60.660156 -60.007812 62.171875 -61.09375 C 63.691406 -62.175781 64.453125 -63.675781 64.453125 -65.59375 L 64.453125 -66.03125 C 64.453125 -68.1875 63.925781 -70.035156 62.875 -71.578125 C 61.832031 -73.128906 60.332031 -74.3125 58.375 -75.125 C 56.425781 -75.945312 54.050781 -76.359375 51.25 -76.359375 C 48.457031 -76.359375 45.992188 -75.929688 43.859375 -75.078125 C 41.734375 -74.234375 39.984375 -73.050781 38.609375 -71.53125 C 37.242188 -70.019531 36.328125 -68.242188 35.859375 -66.203125 L 8.140625 -69.015625 C 9.242188 -74.835938 11.644531 -79.921875 15.34375 -84.265625 C 19.050781 -88.609375 23.960938 -91.972656 30.078125 -94.359375 C 36.203125 -96.753906 43.4375 -97.953125 51.78125 -97.953125 C 57.957031 -97.953125 63.671875 -97.238281 68.921875 -95.8125 C 74.171875 -94.382812 78.734375 -92.285156 82.609375 -89.515625 C 86.484375 -86.742188 89.484375 -83.347656 91.609375 -79.328125 C 93.742188 -75.304688 94.8125 -70.671875 94.8125 -65.421875 L 94.8125 0 L 65.953125 0 L 65.953125 -13.5625 L 65.25 -13.5625 C 63.5 -10.238281 61.296875 -7.4375 58.640625 -5.15625 C 55.992188 -2.882812 52.890625 -1.164062 49.328125 0 C 45.773438 1.164062 41.753906 1.75 37.265625 1.75 Z M 46.53125 -18.375 C 49.914062 -18.375 52.988281 -19.054688 55.75 -20.421875 C 58.519531 -21.796875 60.707031 -23.691406 62.3125 -26.109375 C 63.914062 -28.523438 64.71875 -31.304688 64.71875 -34.453125 L 64.71875 -43.640625 C 63.90625 -43.171875 62.859375 -42.75 61.578125 -42.375 C 60.296875 -42 58.894531 -41.632812 57.375 -41.28125 C 55.863281 -40.9375 54.304688 -40.628906 52.703125 -40.359375 C 51.097656 -40.097656 49.535156 -39.851562 48.015625 -39.625 C 45.097656 -39.21875 42.585938 -38.515625 40.484375 -37.515625 C 38.390625 -36.523438 36.785156 -35.269531 35.671875 -33.75 C 34.566406 -32.238281 34.015625 -30.40625 34.015625 -28.25 C 34.015625 -26.15625 34.554688 -24.363281 35.640625 -22.875 C 36.722656 -21.382812 38.195312 -20.257812 40.0625 -19.5 C 41.925781 -18.75 44.082031 -18.375 46.53125 -18.375 Z M 46.53125 -18.375 "/></g></g></g><g fill="#000000" fill-opacity="1"><g transform="translate(349.677364, 172.886298)"><g><path d="M 54.75 1.921875 C 44.664062 1.921875 35.976562 -0.175781 28.6875 -4.375 C 21.394531 -8.570312 15.78125 -14.414062 11.84375 -21.90625 C 7.914062 -29.40625 5.953125 -38.109375 5.953125 -48.015625 C 5.953125 -57.984375 7.914062 -66.710938 11.84375 -74.203125 C 15.78125 -81.703125 21.394531 -87.535156 28.6875 -91.703125 C 35.976562 -95.867188 44.664062 -97.953125 54.75 -97.953125 C 61.050781 -97.953125 66.8125 -97.117188 72.03125 -95.453125 C 77.25 -93.796875 81.820312 -91.40625 85.75 -88.28125 C 89.6875 -85.164062 92.847656 -81.4375 95.234375 -77.09375 C 97.628906 -72.75 99.148438 -67.867188 99.796875 -62.453125 L 71.453125 -58.78125 C 71.046875 -61.28125 70.375 -63.492188 69.4375 -65.421875 C 68.507812 -67.347656 67.359375 -68.992188 65.984375 -70.359375 C 64.617188 -71.734375 63.03125 -72.769531 61.21875 -73.46875 C 59.414062 -74.164062 57.40625 -74.515625 55.1875 -74.515625 C 51.28125 -74.515625 47.96875 -73.460938 45.25 -71.359375 C 42.539062 -69.265625 40.472656 -66.25 39.046875 -62.3125 C 37.617188 -58.375 36.90625 -53.640625 36.90625 -48.109375 C 36.90625 -42.679688 37.617188 -37.96875 39.046875 -33.96875 C 40.472656 -29.976562 42.539062 -26.90625 45.25 -24.75 C 47.96875 -22.59375 51.28125 -21.515625 55.1875 -21.515625 C 57.40625 -21.515625 59.429688 -21.878906 61.265625 -22.609375 C 63.097656 -23.335938 64.710938 -24.398438 66.109375 -25.796875 C 67.515625 -27.203125 68.671875 -28.921875 69.578125 -30.953125 C 70.484375 -32.992188 71.140625 -35.269531 71.546875 -37.78125 L 99.890625 -34.203125 C 99.304688 -28.722656 97.816406 -23.765625 95.421875 -19.328125 C 93.035156 -14.898438 89.875 -11.097656 85.9375 -7.921875 C 82 -4.742188 77.390625 -2.304688 72.109375 -0.609375 C 66.835938 1.078125 61.050781 1.921875 54.75 1.921875 Z M 54.75 1.921875 "/></g></g></g><g fill="#000000" fill-opacity="1"><g transform="translate(455.243235, 172.886298)"><g><path d="M 40.140625 -54.578125 L 40.140625 0 L 9.703125 0 L 9.703125 -130.328125 L 39.625 -130.328125 L 39.625 -71.890625 L 37.078125 -71.890625 C 39.585938 -79.765625 43.421875 -86.078125 48.578125 -90.828125 C 53.742188 -95.578125 60.671875 -97.953125 69.359375 -97.953125 C 76.179688 -97.953125 82.082031 -96.453125 87.0625 -93.453125 C 92.050781 -90.453125 95.914062 -86.195312 98.65625 -80.6875 C 101.394531 -75.175781 102.765625 -68.71875 102.765625 -61.3125 L 102.765625 0 L 72.328125 0 L 72.328125 -55.359375 C 72.328125 -60.835938 70.941406 -65.109375 68.171875 -68.171875 C 65.398438 -71.234375 61.539062 -72.765625 56.59375 -72.765625 C 53.320312 -72.765625 50.445312 -72.050781 47.96875 -70.625 C 45.488281 -69.195312 43.5625 -67.140625 42.1875 -64.453125 C 40.820312 -61.773438 40.140625 -58.484375 40.140625 -54.578125 Z M 40.140625 -54.578125 "/></g></g></g></g></g></g></g></svg>